<?xml version="1.0" encoding="utf-8"?>
<!-- Generator: Adobe Illustrator 25.0.0, SVG Export Plug-In . SVG Version: 6.00 Build 0)  -->
<svg version="1.1" id="レイヤー_1" xmlns="http://www.w3.org/2000/svg" xmlns:xlink="http://www.w3.org/1999/xlink" x="0px"
	 y="0px" viewBox="0 0 288.18 155.42" style="enable-background:new 0 0 288.18 155.42;" xml:space="preserve">
<style type="text/css">
	.st0{fill:#FFFFFF;}
</style>
<g>
	<g>
		<g>
			<circle cx="-33.45" cy="-177.97" r="33.45"/>
			<g>
				<path class="st0" d="M-19.87-185.48c-0.37-1.09-0.8-2.25-1.32-3.46c-0.51-1.21-1.18-2.32-1.99-3.33
					c-0.81-1.01-1.82-1.84-3.03-2.49c-1.21-0.65-2.71-0.97-4.5-0.97c-2.42,0-4.33,0.45-5.72,1.34c-1.39,0.9-2.45,2.14-3.16,3.73
					c-0.71,1.59-1.17,3.49-1.37,5.69c-0.2,2.2-0.3,4.62-0.3,7.24c0,3.45,0.2,6.3,0.6,8.55c0.4,2.25,1.02,4.05,1.86,5.37
					c0.85,1.33,1.94,2.25,3.28,2.78c1.34,0.53,2.94,0.8,4.8,0.8c1.49,0,2.84-0.3,4.05-0.9c1.21-0.6,2.28-1.38,3.21-2.36
					c0.93-0.98,1.71-2.1,2.34-3.36c0.63-1.26,1.09-2.57,1.39-3.93h0.8v10.54h-0.8c-0.17-0.4-0.37-0.67-0.6-0.82
					c-0.23-0.15-0.58-0.22-1.04-0.22c-0.4,0-0.91,0.09-1.54,0.27c-0.63,0.18-1.35,0.38-2.16,0.6c-0.81,0.22-1.7,0.41-2.66,0.6
					c-0.96,0.18-1.97,0.27-3.03,0.27c-2.42,0-4.76-0.47-7.01-1.42c-2.26-0.94-4.24-2.24-5.94-3.88c-1.71-1.64-3.08-3.57-4.1-5.79
					c-1.03-2.22-1.54-4.62-1.54-7.21c0-2.82,0.57-5.37,1.72-7.66c1.14-2.29,2.61-4.24,4.4-5.87c1.79-1.62,3.79-2.88,5.99-3.75
					c2.2-0.88,4.37-1.32,6.49-1.32c1.06,0,2.05,0.1,2.96,0.3c0.91,0.2,1.76,0.41,2.54,0.62c0.78,0.22,1.48,0.42,2.11,0.62
					c0.63,0.2,1.16,0.3,1.59,0.3c0.46,0,0.81-0.06,1.04-0.17c0.23-0.12,0.4-0.41,0.5-0.87h0.8v10.14H-19.87z"/>
			</g>
		</g>
		<g>
			<path d="M22.45-147.38c-0.72,0.35-2.12,0.7-3.92,0.7c-4.04,0-7.3-2.62-7.3-7.94c0-5.07,3.15-8.23,7.75-8.23
				c1.88,0,2.97,0.39,3.46,0.64L22-160.77c-0.72-0.35-1.73-0.64-2.97-0.64c-3.57,0-6,2.39-6,6.72c0,4.13,2.23,6.56,5.9,6.56
				c1.2,0,2.37-0.27,3.16-0.64L22.45-147.38z"/>
			<path d="M33.25-146.91h-8.29v-15.72h7.94v1.44h-6.23v5.32h5.86v1.42h-5.86v6.08h6.58V-146.91z"/>
			<path d="M46.86-146.91h-1.71l-5.01-8.27c-1.05-1.75-2.06-3.51-2.83-5.24l-0.08,0.02c0.15,2,0.17,3.84,0.17,6.56v6.93h-1.61
				v-15.72h1.79l5.07,8.27c1.11,1.88,2.02,3.51,2.74,5.14l0.04-0.02c-0.17-2.19-0.21-4.06-0.21-6.54v-6.85h1.63V-146.91z"/>
			<path d="M59.58-161.16h-4.64v14.25h-1.71v-14.25h-4.62v-1.44h10.97V-161.16z"/>
			<path d="M67.42-154.43c1.22,0.39,1.94,1.57,2.31,3.28c0.49,2.27,0.84,3.65,1.15,4.25h-1.77c-0.25-0.45-0.6-1.84-1.01-3.79
				c-0.45-2.19-1.32-3.16-3.18-3.16h-1.92v6.95H61.3v-15.49c0.97-0.21,2.33-0.33,3.57-0.33c2.04,0,3.38,0.41,4.31,1.28
				c0.74,0.68,1.18,1.75,1.18,2.93c0,2.08-1.26,3.42-2.93,4.02V-154.43z M65.03-155.18c2.19,0,3.59-1.24,3.59-3.13
				c0-2.33-1.75-3.05-3.67-3.05c-0.93,0-1.59,0.08-1.94,0.17v6.02H65.03z"/>
			<path d="M84.42-146.91h-1.82L80.92-152h-5.47l-1.65,5.09h-1.75l5.2-15.72h1.98L84.42-146.91z M80.57-153.36l-1.55-4.66
				c-0.33-1.07-0.6-2.06-0.8-2.99h-0.06c-0.21,0.95-0.49,1.94-0.78,2.93l-1.57,4.72H80.57z"/>
			<path d="M86.72-162.62h1.71v15.72h-1.71V-162.62z"/>
			<path d="M98.09-154.43c1.22,0.39,1.94,1.57,2.31,3.28c0.49,2.27,0.84,3.65,1.15,4.25h-1.77c-0.25-0.45-0.6-1.84-1.01-3.79
				c-0.45-2.19-1.32-3.16-3.18-3.16h-1.92v6.95h-1.71v-15.49c0.97-0.21,2.33-0.33,3.57-0.33c2.04,0,3.38,0.41,4.31,1.28
				c0.74,0.68,1.18,1.75,1.18,2.93c0,2.08-1.26,3.42-2.93,4.02V-154.43z M95.69-155.18c2.19,0,3.59-1.24,3.59-3.13
				c0-2.33-1.75-3.05-3.67-3.05c-0.93,0-1.59,0.08-1.94,0.17v6.02H95.69z"/>
			<path d="M118.97-147.38c-0.72,0.35-2.12,0.7-3.92,0.7c-4.04,0-7.3-2.62-7.3-7.94c0-5.07,3.15-8.23,7.75-8.23
				c1.88,0,2.97,0.39,3.46,0.64l-0.45,1.44c-0.72-0.35-1.73-0.64-2.97-0.64c-3.57,0-6,2.39-6,6.72c0,4.13,2.23,6.56,5.9,6.56
				c1.2,0,2.37-0.27,3.16-0.64L118.97-147.38z"/>
			<path d="M132.4-146.91h-1.71v-7.51h-7.51v7.51h-1.71v-15.7h1.71v6.7h7.51v-6.7h1.71V-146.91z"/>
			<path d="M147.16-146.91h-1.82l-1.69-5.09h-5.47l-1.65,5.09h-1.75l5.2-15.72h1.98L147.16-146.91z M143.3-153.36l-1.55-4.66
				c-0.33-1.07-0.6-2.06-0.8-2.99h-0.06c-0.21,0.95-0.49,1.94-0.78,2.93l-1.57,4.72H143.3z"/>
			<path d="M164.28-146.91h-1.69l-0.39-7.07c-0.12-2.25-0.29-5.16-0.27-6.77h-0.06c-0.52,1.77-1.15,3.71-1.92,5.9l-2.81,7.88h-1.26
				l-2.62-7.71c-0.76-2.27-1.36-4.25-1.79-6.06h-0.06c-0.04,1.92-0.17,4.52-0.31,6.93l-0.43,6.91h-1.63l1.09-15.72h2.1l2.76,7.98
				c0.66,1.96,1.17,3.63,1.59,5.26h0.06c0.39-1.59,0.93-3.24,1.63-5.26l2.87-7.98h2.14L164.28-146.91z"/>
			<path d="M173.41-155.32c1.48,0.35,3.24,1.59,3.24,3.96c0,1.4-0.54,2.39-1.26,3.09c-1.05,1.03-2.74,1.49-5.11,1.49
				c-1.3,0-2.27-0.1-2.91-0.17v-15.45c0.87-0.19,2.1-0.33,3.38-0.33c1.94,0,3.22,0.37,4.15,1.16c0.74,0.64,1.18,1.55,1.18,2.72
				c0,1.55-1.05,2.89-2.66,3.46V-155.32z M170.91-155.9c2.08,0,3.42-1.2,3.42-2.81v-0.02c0-1.86-1.36-2.66-3.51-2.66
				c-0.91,0-1.44,0.06-1.75,0.14v5.34H170.91z M169.08-148.25c0.39,0.08,0.95,0.1,1.67,0.1c2.17,0,4.11-0.85,4.11-3.22
				c0-2.35-2.04-3.22-4.13-3.22h-1.65V-148.25z"/>
			<path d="M187.62-146.91h-8.29v-15.72h7.94v1.44h-6.23v5.32h5.86v1.42h-5.86v6.08h6.58V-146.91z"/>
			<path d="M196.29-154.43c1.22,0.39,1.94,1.57,2.31,3.28c0.49,2.27,0.84,3.65,1.15,4.25h-1.77c-0.25-0.45-0.6-1.84-1.01-3.79
				c-0.45-2.19-1.32-3.16-3.18-3.16h-1.92v6.95h-1.71v-15.49c0.97-0.21,2.33-0.33,3.57-0.33c2.04,0,3.38,0.41,4.31,1.28
				c0.74,0.68,1.18,1.75,1.18,2.93c0,2.08-1.26,3.42-2.93,4.02V-154.43z M193.9-155.18c2.19,0,3.59-1.24,3.59-3.13
				c0-2.33-1.75-3.05-3.67-3.05c-0.93,0-1.59,0.08-1.94,0.17v6.02H193.9z"/>
			<path d="M219.42-154.91c0,5.53-3.1,8.25-6.81,8.25c-3.9,0-6.66-3.07-6.66-7.98c0-5.11,2.91-8.23,6.85-8.23
				C216.82-162.87,219.42-159.65,219.42-154.91z M207.75-154.68c0,3.34,1.73,6.6,4.93,6.6c3.24,0,4.95-3.15,4.95-6.74
				c0-3.16-1.55-6.62-4.91-6.62C209.25-161.45,207.75-158.02,207.75-154.68z"/>
			<path d="M222.03-146.91v-15.72h7.92v1.44h-6.21v5.59h5.71v1.42h-5.71v7.26H222.03z"/>
			<path d="M247.86-147.38c-0.72,0.35-2.12,0.7-3.92,0.7c-4.04,0-7.3-2.62-7.3-7.94c0-5.07,3.15-8.23,7.75-8.23
				c1.88,0,2.97,0.39,3.46,0.64l-0.45,1.44c-0.72-0.35-1.73-0.64-2.97-0.64c-3.57,0-6,2.39-6,6.72c0,4.13,2.23,6.56,5.9,6.56
				c1.2,0,2.37-0.27,3.16-0.64L247.86-147.38z"/>
			<path d="M262.92-154.91c0,5.53-3.1,8.25-6.81,8.25c-3.9,0-6.66-3.07-6.66-7.98c0-5.11,2.91-8.23,6.85-8.23
				C260.33-162.87,262.92-159.65,262.92-154.91z M251.25-154.68c0,3.34,1.73,6.6,4.93,6.6c3.24,0,4.95-3.15,4.95-6.74
				c0-3.16-1.55-6.62-4.91-6.62C252.76-161.45,251.25-158.02,251.25-154.68z"/>
			<path d="M280.36-146.91h-1.69l-0.39-7.07c-0.12-2.25-0.29-5.16-0.27-6.77h-0.06c-0.52,1.77-1.15,3.71-1.92,5.9l-2.81,7.88h-1.26
				l-2.62-7.71c-0.76-2.27-1.36-4.25-1.79-6.06h-0.06c-0.04,1.92-0.17,4.52-0.31,6.93l-0.43,6.91h-1.63l1.09-15.72h2.1l2.76,7.98
				c0.66,1.96,1.17,3.63,1.59,5.26h0.06c0.39-1.59,0.93-3.24,1.63-5.26l2.87-7.98h2.14L280.36-146.91z"/>
			<path d="M298.27-146.91h-1.69l-0.39-7.07c-0.12-2.25-0.29-5.16-0.27-6.77h-0.06c-0.52,1.77-1.15,3.71-1.92,5.9l-2.81,7.88h-1.26
				l-2.62-7.71c-0.76-2.27-1.36-4.25-1.79-6.06h-0.06c-0.04,1.92-0.17,4.52-0.31,6.93l-0.43,6.91h-1.63l1.09-15.72h2.1l2.76,7.98
				c0.66,1.96,1.17,3.63,1.59,5.26h0.06c0.39-1.59,0.93-3.24,1.63-5.26l2.87-7.98h2.14L298.27-146.91z"/>
			<path d="M309.65-146.91h-8.29v-15.72h7.94v1.44h-6.23v5.32h5.86v1.42h-5.86v6.08h6.58V-146.91z"/>
			<path d="M318.31-154.43c1.22,0.39,1.94,1.57,2.31,3.28c0.49,2.27,0.84,3.65,1.15,4.25h-1.77c-0.25-0.45-0.6-1.84-1.01-3.79
				c-0.45-2.19-1.32-3.16-3.18-3.16h-1.92v6.95h-1.71v-15.49c0.97-0.21,2.33-0.33,3.57-0.33c2.04,0,3.38,0.41,4.31,1.28
				c0.74,0.68,1.18,1.75,1.18,2.93c0,2.08-1.26,3.42-2.93,4.02V-154.43z M315.92-155.18c2.19,0,3.59-1.24,3.59-3.13
				c0-2.33-1.75-3.05-3.67-3.05c-0.93,0-1.59,0.08-1.94,0.17v6.02H315.92z"/>
			<path d="M334.39-147.38c-0.72,0.35-2.12,0.7-3.92,0.7c-4.04,0-7.3-2.62-7.3-7.94c0-5.07,3.15-8.23,7.75-8.23
				c1.88,0,2.97,0.39,3.46,0.64l-0.45,1.44c-0.72-0.35-1.73-0.64-2.97-0.64c-3.57,0-6,2.39-6,6.72c0,4.13,2.23,6.56,5.9,6.56
				c1.2,0,2.37-0.27,3.16-0.64L334.39-147.38z"/>
			<path d="M345.18-146.91h-8.29v-15.72h7.94v1.44h-6.23v5.32h5.86v1.42h-5.86v6.08h6.58V-146.91z"/>
		</g>
		<g>
			<path d="M44.98-200.74c-0.12,0.21-0.37,0.37-0.66,0.5c-1.86,4.46-5.12,10.07-8.63,13.46c-0.62-0.45-1.69-1.07-2.48-1.49
				c3.14-2.81,5.7-6.94,7.06-10.24l-15.81,4.13v10.69c0,4.05,2.44,5.41,5.74,5.41h6.73c1.69,0,4.54-0.25,6.15-0.45
				c0,0.91,0.04,2.02,0.08,2.89c-1.65,0.21-4.54,0.33-6.11,0.33h-6.89c-5.2,0-8.67-2.44-8.67-8.13v-9.99l-10.4,2.68l-0.7-2.77
				l11.1-2.77v-12.55l4,0.17c-0.08,0.49-0.45,0.74-1.03,0.83v10.77l17.46-4.5l0.45-0.33L44.98-200.74z"/>
			<path d="M50.93-206.81c4.29,1.36,9.25,3.51,12.3,5.61l-1.57,2.6c-2.97-2.11-7.84-4.29-12.06-5.74L50.93-206.81z M50.76-178.2
				c14.66-4.54,24.4-12.76,29.35-24.19c0.87,0.7,1.82,1.24,2.68,1.69c-5.16,11.31-15.23,20.1-29.23,24.77
				c-0.04,0.37-0.29,0.78-0.58,0.95L50.76-178.2z"/>
			<path d="M110.72-188.19c-4.21-2.27-9.99-4.95-14.49-6.73v20.64h-3.1v-35.87l4.17,0.25c-0.04,0.45-0.37,0.74-1.07,0.87v12.05
				l0.62-0.87c4.83,1.78,11.23,4.62,15.52,6.89L110.72-188.19z"/>
			<path d="M125.3-178.9c10.49-2.93,18.82-7.97,23.9-16.97c0.54,0.7,1.57,1.57,2.19,2.06c-5.57,9.49-14.78,15.03-27.21,18.29
				c-0.08,0.33-0.33,0.7-0.66,0.83l-1.74-2.89l0.5-0.78v-30.42l4.25,0.21c-0.04,0.45-0.41,0.83-1.24,0.91V-178.9z"/>
			<path d="M185.75-206.39c-0.08,0.17-0.33,0.29-0.54,0.37c-2.23,5.28-5.78,9.87-9.78,13.21c-0.62-0.54-1.78-1.28-2.52-1.69
				c3.8-2.77,6.85-6.77,8.21-10.24h-29.56v-2.81h31.13l0.45-0.21L185.75-206.39z M169.65-198.88c-0.04,0.33-0.41,0.62-0.95,0.7
				c-1.2,9.74-4.54,19.03-13.04,23.94c-0.58-0.49-1.65-1.44-2.43-1.9c8.42-4.62,11.43-13.25,12.42-23.2L169.65-198.88z"/>
			<path d="M227.09-206.64v2.56h-9.95l2.19,0.54c-0.12,0.25-0.41,0.37-0.91,0.37c-0.58,1.32-1.44,3.1-2.31,4.54h8.79v22.21
				c0,3.47-1.65,3.55-8.79,3.55c-0.17-0.78-0.58-1.98-0.99-2.72c1.65,0.04,3.22,0.08,4.38,0.08c2.52,0,2.72,0,2.72-0.95v-19.69
				h-8.79v3.67c0,0.74,0.17,0.87,1.32,0.87h4.09c0.87,0,1.07-0.21,1.16-1.98c0.49,0.37,1.49,0.74,2.19,0.87
				c-0.25,2.64-0.99,3.3-3.01,3.3h-4.67c-2.89,0-3.55-0.58-3.55-3.01v-3.72h-5.49c-0.54,4.5-2.23,7.27-8.59,8.79
				c-0.21-0.62-0.87-1.53-1.36-1.98c5.24-1.07,6.89-3.01,7.43-6.81h-7.76v23.24h-2.68v-25.72h8.42c-0.46-1.44-1.28-3.39-2.15-4.87
				l2.6-0.58c0.99,1.57,1.98,3.72,2.35,5.08l-1.36,0.37h10.73c0.82-1.53,1.82-3.8,2.43-5.45h-25.47v-2.56h16.93v-4.67l3.63,0.25
				c-0.04,0.29-0.25,0.5-0.83,0.54v3.88H227.09z M216.61-177.17h-13.34v2.52h-2.52v-12.72h15.85V-177.17z M214.05-185.13h-10.78
				v5.74h10.78V-185.13z"/>
			<path d="M249.73-179.02h17.21v2.81h-37.19v-2.81h17.05v-24.73h-15.03v-2.77h33.27v2.77h-15.32V-179.02z"/>
			<path d="M290.72-211.18c-0.12,0.33-0.46,0.54-0.87,0.62c4.05,5.61,11.52,11.15,18,13.95c-0.66,0.66-1.32,1.65-1.78,2.48
				c-6.56-3.22-13.99-8.88-17.96-14.45c-3.43,5.12-10.32,10.98-17.55,14.61c-0.33-0.58-1.03-1.65-1.61-2.23
				c7.27-3.51,14.41-9.7,17.67-15.23L290.72-211.18z M271.11-187.61v-2.64h34.64v2.64h-19.86l0.5,0.17
				c-0.12,0.29-0.46,0.41-0.99,0.45c-1.24,2.81-3.1,6.52-4.87,9.58c5.49-0.12,11.89-0.33,18.16-0.54c-1.86-2.15-4-4.38-6.07-6.19
				l2.35-1.28c3.88,3.34,8.05,7.88,9.99,11.02l-2.48,1.57c-0.54-0.87-1.2-1.86-2.02-2.89c-10.03,0.54-20.68,0.99-27.29,1.2
				c-0.08,0.37-0.33,0.54-0.66,0.58l-1.03-3.3c1.73,0,3.76-0.04,6.03-0.12c1.69-2.97,3.63-7.02,4.91-10.24H271.11z M278.17-198.26
				h20.02v2.6h-20.02V-198.26z"/>
		</g>
	</g>
	<g>
		<g>
			<path d="M14.87,149.46c-0.59,0.29-1.74,0.58-3.22,0.58c-3.32,0-5.99-2.15-5.99-6.52c0-4.17,2.59-6.76,6.37-6.76
				c1.54,0,2.44,0.32,2.84,0.52l-0.37,1.18c-0.59-0.29-1.42-0.52-2.44-0.52c-2.93,0-4.93,1.96-4.93,5.52c0,3.39,1.83,5.39,4.84,5.39
				c0.98,0,1.95-0.22,2.59-0.52L14.87,149.46z"/>
			<path d="M23.73,149.85h-6.81v-12.9h6.52v1.19h-5.11v4.37h4.81v1.17h-4.81v4.99h5.4V149.85z"/>
			<path d="M34.92,149.85h-1.41l-4.11-6.79c-0.86-1.44-1.69-2.88-2.32-4.3l-0.07,0.02c0.12,1.64,0.14,3.15,0.14,5.39v5.69h-1.32
				v-12.9h1.47l4.17,6.79c0.91,1.54,1.66,2.88,2.25,4.22l0.03-0.02c-0.14-1.8-0.17-3.34-0.17-5.37v-5.62h1.34V149.85z"/>
			<path d="M45.35,138.15h-3.81v11.7h-1.41v-11.7h-3.79v-1.19h9.01V138.15z"/>
			<path d="M51.79,143.67c1,0.32,1.59,1.29,1.9,2.69c0.41,1.86,0.69,3,0.95,3.49h-1.46c-0.2-0.37-0.49-1.51-0.83-3.12
				c-0.37-1.8-1.08-2.59-2.61-2.59h-1.58v5.71h-1.4v-12.72c0.8-0.17,1.91-0.27,2.93-0.27c1.68,0,2.78,0.34,3.54,1.05
				c0.61,0.56,0.97,1.44,0.97,2.4c0,1.71-1.03,2.81-2.4,3.3V143.67z M49.83,143.06c1.8,0,2.95-1.02,2.95-2.57
				c0-1.91-1.44-2.51-3.01-2.51c-0.76,0-1.3,0.07-1.59,0.14v4.95H49.83z"/>
			<path d="M65.75,149.85h-1.49l-1.39-4.18h-4.49l-1.36,4.18h-1.44l4.27-12.9h1.63L65.75,149.85z M62.58,144.55l-1.27-3.83
				c-0.27-0.88-0.49-1.69-0.66-2.46H60.6c-0.17,0.78-0.41,1.59-0.64,2.41l-1.29,3.88H62.58z"/>
			<path d="M67.63,136.95h1.4v12.9h-1.4V136.95z"/>
			<path d="M76.97,143.67c1,0.32,1.59,1.29,1.9,2.69c0.41,1.86,0.69,3,0.95,3.49h-1.46c-0.2-0.37-0.49-1.51-0.83-3.12
				c-0.37-1.8-1.08-2.59-2.61-2.59h-1.58v5.71h-1.4v-12.72c0.8-0.17,1.91-0.27,2.93-0.27c1.68,0,2.78,0.34,3.54,1.05
				c0.61,0.56,0.97,1.44,0.97,2.4c0,1.71-1.03,2.81-2.4,3.3V143.67z M75,143.06c1.8,0,2.95-1.02,2.95-2.57
				c0-1.91-1.44-2.51-3.01-2.51c-0.76,0-1.3,0.07-1.59,0.14v4.95H75z"/>
			<path d="M94.11,149.46c-0.59,0.29-1.74,0.58-3.22,0.58c-3.32,0-5.99-2.15-5.99-6.52c0-4.17,2.59-6.76,6.37-6.76
				c1.54,0,2.44,0.32,2.84,0.52l-0.37,1.18c-0.59-0.29-1.42-0.52-2.44-0.52c-2.93,0-4.93,1.96-4.93,5.52c0,3.39,1.83,5.39,4.84,5.39
				c0.98,0,1.95-0.22,2.59-0.52L94.11,149.46z"/>
			<path d="M105.14,149.85h-1.4v-6.16h-6.16v6.16h-1.4v-12.89h1.4v5.5h6.16v-5.5h1.4V149.85z"/>
			<path d="M117.25,149.85h-1.49l-1.39-4.18h-4.49l-1.36,4.18h-1.44l4.27-12.9h1.63L117.25,149.85z M114.09,144.55l-1.27-3.83
				c-0.27-0.88-0.49-1.69-0.66-2.46h-0.05c-0.17,0.78-0.41,1.59-0.64,2.41l-1.29,3.88H114.09z"/>
			<path d="M131.31,149.85h-1.39l-0.32-5.81c-0.1-1.84-0.24-4.23-0.22-5.55h-0.05c-0.42,1.46-0.95,3.05-1.58,4.84l-2.3,6.47h-1.03
				l-2.15-6.33c-0.63-1.86-1.12-3.49-1.47-4.98h-0.05c-0.03,1.58-0.14,3.71-0.25,5.69l-0.36,5.67h-1.34l0.9-12.9h1.73l2.27,6.55
				c0.54,1.61,0.96,2.98,1.3,4.32h0.05c0.32-1.3,0.76-2.66,1.34-4.32l2.35-6.55h1.76L131.31,149.85z"/>
			<path d="M138.81,142.94c1.22,0.29,2.66,1.3,2.66,3.25c0,1.15-0.44,1.96-1.03,2.54c-0.86,0.85-2.25,1.22-4.2,1.22
				c-1.07,0-1.86-0.08-2.39-0.14v-12.68c0.71-0.15,1.73-0.27,2.78-0.27c1.59,0,2.64,0.3,3.4,0.95c0.61,0.52,0.97,1.27,0.97,2.24
				c0,1.27-0.86,2.37-2.18,2.84V142.94z M136.76,142.47c1.71,0,2.81-0.98,2.81-2.3v-0.02c0-1.52-1.12-2.18-2.88-2.18
				c-0.74,0-1.18,0.05-1.44,0.12v4.39H136.76z M135.25,148.75c0.32,0.07,0.78,0.08,1.37,0.08c1.78,0,3.37-0.69,3.37-2.64
				c0-1.93-1.68-2.64-3.39-2.64h-1.36V148.75z"/>
			<path d="M150.48,149.85h-6.81v-12.9h6.52v1.19h-5.11v4.37h4.81v1.17h-4.81v4.99h5.4V149.85z"/>
			<path d="M157.59,143.67c1,0.32,1.59,1.29,1.9,2.69c0.41,1.86,0.69,3,0.95,3.49h-1.46c-0.2-0.37-0.49-1.51-0.83-3.12
				c-0.37-1.8-1.08-2.59-2.61-2.59h-1.58v5.71h-1.4v-12.72c0.8-0.17,1.91-0.27,2.93-0.27c1.68,0,2.78,0.34,3.54,1.05
				c0.61,0.56,0.97,1.44,0.97,2.4c0,1.71-1.03,2.81-2.4,3.3V143.67z M155.63,143.06c1.8,0,2.95-1.02,2.95-2.57
				c0-1.91-1.44-2.51-3.01-2.51c-0.76,0-1.3,0.07-1.59,0.14v4.95H155.63z"/>
			<path d="M176.58,143.28c0,4.54-2.54,6.77-5.59,6.77c-3.2,0-5.47-2.52-5.47-6.55c0-4.2,2.39-6.76,5.62-6.76
				C174.45,136.75,176.58,139.39,176.58,143.28z M167,143.47c0,2.74,1.42,5.42,4.05,5.42c2.66,0,4.06-2.59,4.06-5.54
				c0-2.59-1.27-5.44-4.03-5.44C168.23,137.92,167,140.72,167,143.47z"/>
			<path d="M178.72,149.85v-12.9h6.5v1.19h-5.1v4.59h4.69v1.17h-4.69v5.96H178.72z"/>
			<path d="M199.93,149.46c-0.59,0.29-1.74,0.58-3.22,0.58c-3.32,0-5.99-2.15-5.99-6.52c0-4.17,2.59-6.76,6.37-6.76
				c1.54,0,2.44,0.32,2.84,0.52l-0.37,1.18c-0.59-0.29-1.42-0.52-2.44-0.52c-2.93,0-4.93,1.96-4.93,5.52c0,3.39,1.83,5.39,4.84,5.39
				c0.98,0,1.95-0.22,2.59-0.52L199.93,149.46z"/>
			<path d="M212.3,143.28c0,4.54-2.54,6.77-5.59,6.77c-3.2,0-5.47-2.52-5.47-6.55c0-4.2,2.39-6.76,5.62-6.76
				C210.16,136.75,212.3,139.39,212.3,143.28z M202.71,143.47c0,2.74,1.42,5.42,4.05,5.42c2.66,0,4.06-2.59,4.06-5.54
				c0-2.59-1.27-5.44-4.03-5.44C203.95,137.92,202.71,140.72,202.71,143.47z"/>
			<path d="M226.61,149.85h-1.39l-0.32-5.81c-0.1-1.84-0.24-4.23-0.22-5.55h-0.05c-0.42,1.46-0.95,3.05-1.58,4.84l-2.3,6.47h-1.03
				l-2.15-6.33c-0.63-1.86-1.12-3.49-1.47-4.98h-0.05c-0.03,1.58-0.14,3.71-0.25,5.69l-0.36,5.67h-1.34l0.9-12.9h1.73l2.27,6.55
				c0.54,1.61,0.96,2.98,1.3,4.32h0.05c0.32-1.3,0.76-2.66,1.34-4.32l2.35-6.55h1.76L226.61,149.85z"/>
			<path d="M241.32,149.85h-1.39l-0.32-5.81c-0.1-1.84-0.24-4.23-0.22-5.55h-0.05c-0.42,1.46-0.95,3.05-1.58,4.84l-2.3,6.47h-1.03
				l-2.15-6.33c-0.63-1.86-1.12-3.49-1.47-4.98h-0.05c-0.03,1.58-0.14,3.71-0.25,5.69l-0.36,5.67h-1.34l0.9-12.9h1.73l2.27,6.55
				c0.54,1.61,0.96,2.98,1.3,4.32h0.05c0.32-1.3,0.76-2.66,1.34-4.32l2.35-6.55h1.76L241.32,149.85z"/>
			<path d="M250.65,149.85h-6.81v-12.9h6.52v1.19h-5.11v4.37h4.81v1.17h-4.81v4.99h5.4V149.85z"/>
			<path d="M257.77,143.67c1,0.32,1.59,1.29,1.9,2.69c0.41,1.86,0.69,3,0.95,3.49h-1.46c-0.2-0.37-0.49-1.51-0.83-3.12
				c-0.37-1.8-1.08-2.59-2.61-2.59h-1.58v5.71h-1.4v-12.72c0.8-0.17,1.91-0.27,2.93-0.27c1.68,0,2.78,0.34,3.54,1.05
				c0.61,0.56,0.97,1.44,0.97,2.4c0,1.71-1.03,2.81-2.4,3.3V143.67z M255.81,143.06c1.8,0,2.95-1.02,2.95-2.57
				c0-1.91-1.44-2.51-3.01-2.51c-0.76,0-1.3,0.07-1.59,0.14v4.95H255.81z"/>
			<path d="M270.97,149.46c-0.59,0.29-1.74,0.58-3.22,0.58c-3.32,0-5.99-2.15-5.99-6.52c0-4.17,2.59-6.76,6.37-6.76
				c1.54,0,2.44,0.32,2.84,0.52l-0.37,1.18c-0.59-0.29-1.42-0.52-2.44-0.52c-2.93,0-4.93,1.96-4.93,5.52c0,3.39,1.83,5.39,4.84,5.39
				c0.98,0,1.95-0.22,2.59-0.52L270.97,149.46z"/>
			<path d="M279.83,149.85h-6.81v-12.9h6.52v1.19h-5.11v4.37h4.81v1.17h-4.81v4.99h5.4V149.85z"/>
		</g>
		<g>
			<path d="M49.83,107.04c-0.1,0.17-0.3,0.3-0.54,0.41c-1.53,3.66-4.2,8.27-7.08,11.05c-0.51-0.37-1.39-0.88-2.03-1.22
				c2.58-2.3,4.68-5.69,5.8-8.4l-12.98,3.39v8.78c0,3.32,2,4.44,4.71,4.44h5.52c1.39,0,3.73-0.2,5.05-0.37
				c0,0.75,0.03,1.66,0.07,2.37c-1.36,0.17-3.73,0.27-5.02,0.27h-5.66c-4.27,0-7.12-2-7.12-6.68v-8.2l-8.54,2.2l-0.58-2.27
				l9.12-2.27v-10.3l3.29,0.14c-0.07,0.41-0.37,0.61-0.85,0.68v8.85l14.34-3.69l0.37-0.27L49.83,107.04z"/>
			<path d="M54.71,102.06c3.52,1.12,7.59,2.88,10.1,4.61l-1.29,2.13c-2.44-1.73-6.44-3.52-9.9-4.71L54.71,102.06z M54.58,125.55
				c12.03-3.73,20.03-10.47,24.1-19.86c0.71,0.58,1.49,1.02,2.2,1.39c-4.24,9.29-12.51,16.51-24,20.34
				c-0.03,0.3-0.24,0.64-0.47,0.78L54.58,125.55z"/>
			<path d="M103.81,117.35c-3.46-1.86-8.2-4.07-11.9-5.52v16.95h-2.54V99.32l3.42,0.2c-0.03,0.37-0.31,0.61-0.88,0.71v9.9l0.51-0.71
				c3.97,1.46,9.22,3.8,12.74,5.66L103.81,117.35z"/>
			<path d="M115.77,124.97c8.61-2.41,15.45-6.54,19.62-13.93c0.44,0.58,1.29,1.29,1.8,1.69c-4.58,7.8-12.13,12.34-22.34,15.01
				c-0.07,0.27-0.27,0.58-0.54,0.68l-1.42-2.37l0.41-0.65v-24.98l3.49,0.17c-0.03,0.37-0.34,0.68-1.02,0.75V124.97z"/>
			<path d="M165.4,102.4c-0.07,0.14-0.27,0.24-0.44,0.3c-1.83,4.34-4.75,8.1-8.03,10.85c-0.51-0.44-1.46-1.05-2.07-1.39
				c3.12-2.27,5.63-5.56,6.74-8.4h-24.27v-2.3h25.56l0.37-0.17L165.4,102.4z M152.18,108.57c-0.03,0.27-0.34,0.51-0.78,0.58
				c-0.98,8-3.73,15.62-10.71,19.66c-0.47-0.41-1.36-1.19-2-1.56c6.91-3.8,9.39-10.88,10.2-19.05L152.18,108.57z"/>
			<path d="M199.34,102.2v2.1h-8.17l1.8,0.44c-0.1,0.2-0.34,0.3-0.75,0.3c-0.47,1.09-1.19,2.54-1.9,3.73h7.22V127
				c0,2.85-1.36,2.92-7.22,2.92c-0.14-0.64-0.47-1.63-0.81-2.24c1.36,0.03,2.64,0.07,3.59,0.07c2.07,0,2.24,0,2.24-0.78V110.8h-7.22
				v3.02c0,0.61,0.14,0.71,1.08,0.71h3.36c0.71,0,0.88-0.17,0.95-1.63c0.41,0.3,1.22,0.61,1.8,0.71c-0.2,2.17-0.81,2.71-2.47,2.71
				h-3.83c-2.37,0-2.91-0.47-2.91-2.48v-3.05h-4.51c-0.44,3.69-1.83,5.96-7.05,7.22c-0.17-0.51-0.71-1.25-1.12-1.63
				c4.31-0.88,5.66-2.48,6.1-5.59h-6.37v19.08h-2.2v-21.11h6.91c-0.37-1.19-1.05-2.78-1.76-4l2.13-0.47
				c0.81,1.29,1.63,3.05,1.93,4.17l-1.12,0.31h8.81c0.68-1.25,1.49-3.12,2-4.47h-20.91v-2.1h13.9v-3.83l2.98,0.2
				c-0.03,0.24-0.2,0.41-0.68,0.44v3.19H199.34z M190.74,126.4h-10.95v2.07h-2.07v-10.44h13.01V126.4z M188.63,119.85h-8.85v4.71
				h8.85V119.85z"/>
			<path d="M217.93,124.87h14.13v2.3h-30.54v-2.3h14v-20.3h-12.34v-2.27h27.32v2.27h-12.57V124.87z"/>
			<path d="M251.58,98.47c-0.1,0.27-0.37,0.44-0.71,0.51c3.32,4.61,9.46,9.15,14.78,11.45c-0.54,0.54-1.09,1.36-1.46,2.03
				c-5.39-2.64-11.49-7.29-14.74-11.86c-2.81,4.2-8.47,9.02-14.4,12c-0.27-0.47-0.85-1.36-1.32-1.83
				c5.97-2.88,11.83-7.96,14.51-12.51L251.58,98.47z M235.48,117.82v-2.17h28.44v2.17h-16.3l0.41,0.14
				c-0.1,0.24-0.37,0.34-0.81,0.37c-1.02,2.3-2.54,5.36-4,7.86c4.51-0.1,9.76-0.27,14.91-0.44c-1.53-1.76-3.29-3.59-4.98-5.08
				l1.93-1.05c3.19,2.74,6.61,6.47,8.2,9.05l-2.03,1.29c-0.44-0.71-0.98-1.52-1.66-2.37c-8.24,0.44-16.98,0.81-22.4,0.98
				c-0.07,0.3-0.27,0.44-0.54,0.47l-0.85-2.71c1.42,0,3.08-0.03,4.95-0.1c1.39-2.44,2.98-5.76,4.03-8.4H235.48z M241.28,109.08
				h16.44v2.14h-16.44V109.08z"/>
		</g>
		<g>
			<polygon points="181.59,71.93 118.05,71.93 118.05,8.86 181.59,8.86 181.59,15.79 124.97,15.79 124.97,65.01 181.59,65.01 			"/>
			<polygon points="167.39,85.19 103.86,85.19 103.86,22.12 167.39,22.12 167.39,29.04 110.78,29.04 110.78,78.27 167.39,78.27 			
				"/>
		</g>
	</g>
</g>
<g>
	<path d="M31.57,369.25v-0.71h5.88v0.71H35.5v1.83h1.55v7.74h-0.7v-0.59h-3.67v0.74h-0.68v-7.89h1.44v-1.83H31.57z M33.53,371.8
		h-0.85v3.8h3.67v-1.55c-0.08,0.36-0.24,0.48-0.5,0.48h-0.38c-0.44,0-0.58-0.13-0.58-0.71v-2.03h-0.85v0.78
		c0,0.76-0.16,1.81-0.86,2.55c-0.08-0.11-0.3-0.26-0.42-0.32c0.66-0.68,0.78-1.56,0.78-2.24V371.8z M32.68,377.55h3.67v-1.3h-3.67
		V377.55z M34.88,371.09v-1.83h-0.84v1.83H34.88z M35.76,374c0.13,0,0.17-0.07,0.18-0.77c0.1,0.08,0.26,0.14,0.41,0.19v-1.63H35.4
		v2.01c0,0.17,0.01,0.19,0.11,0.19H35.76z M38.75,377.65c0,0.42,0.11,0.5,0.66,0.5h1.91c0.55,0,0.64-0.31,0.7-2.1
		c0.18,0.14,0.52,0.28,0.73,0.34c-0.1,1.99-0.34,2.52-1.38,2.52h-2.03c-1.06,0-1.38-0.25-1.38-1.27v-4.8h3.57v-3.44h-3.69v-0.76
		h4.49v5.52h-0.79v-0.56h-2.78V377.65z"/>
	<path d="M45.81,377.28c0,0.77,0.25,0.96,1.61,0.96h4.93c1.19,0,1.38-0.34,1.52-1.86c0.2,0.14,0.55,0.26,0.79,0.31
		c-0.19,1.77-0.54,2.3-2.31,2.3h-4.86c-1.91,0-2.49-0.32-2.49-1.73v-5.47c-0.3,0.26-0.61,0.53-0.95,0.77
		c-0.13-0.18-0.4-0.44-0.6-0.58c1.7-1.17,2.96-2.78,3.63-4.03l1.07,0.18c-0.02,0.08-0.11,0.14-0.26,0.16
		c-0.1,0.17-0.2,0.34-0.32,0.52h3.18l0.13-0.05l0.64,0.4c-0.04,0.05-0.11,0.08-0.19,0.1c-0.28,0.54-0.68,1.19-1.1,1.74h3.5v4.39
		h-0.82v-0.56h-7.09V377.28z M45.81,371.73v2.34h3.02v-2.34H45.81z M49.25,370.99c0.35-0.41,0.71-0.96,0.97-1.46h-3.17
		c-0.36,0.48-0.77,0.97-1.22,1.46H49.25z M52.89,374.07v-2.34h-3.25v2.34H52.89z"/>
	<path d="M56.76,378.46c-0.37-0.86-0.52-2.65-0.52-4.22c0-1.59,0.25-3.6,0.65-5.6l1.16,0.23c-0.02,0.12-0.14,0.2-0.31,0.22
		c-0.43,1.64-0.7,3.78-0.7,5.17c0,0.91,0.01,1.82,0.11,2.27c0.26-0.72,0.74-1.87,1-2.43l0.54,0.5c-0.4,0.82-1.23,2.64-1.23,3.2
		c0,0.17,0.04,0.35,0.12,0.58L56.76,378.46z M59.81,371.4c1.01,0.01,2.01,0.02,3.02-0.05c-0.05-1.03-0.08-1.92-0.11-2.81l1.21,0.04
		c-0.01,0.12-0.12,0.22-0.31,0.25c0.01,0.77,0.04,1.55,0.06,2.46c0.95-0.1,1.72-0.26,2.35-0.48l0.11,0.84
		c-0.58,0.18-1.4,0.35-2.42,0.43c0.05,1.33,0.11,2.73,0.14,3.5c0.91,0.37,1.82,0.96,2.45,1.52l-0.47,0.77
		c-0.49-0.49-1.2-1.02-1.94-1.37c-0.01,1.02-0.2,2.16-2,2.16c-1.4,0-2.34-0.67-2.34-1.73c0-1.22,1.24-1.76,2.34-1.76
		c0.37,0,0.77,0.05,1.14,0.16c-0.04-0.76-0.11-2.01-0.17-3.19c-0.37,0.02-0.88,0.04-1.22,0.04h-1.82L59.81,371.4z M63.09,376.11
		c-0.38-0.12-0.79-0.22-1.19-0.22c-0.73,0-1.61,0.26-1.61,1.02c0,0.67,0.72,1.01,1.6,1.01c0.89,0,1.21-0.43,1.21-1.39L63.09,376.11z
		"/>
	<path d="M73.76,368.18c-0.04,0.07-0.12,0.12-0.26,0.13c-0.13,0.38-0.34,0.9-0.53,1.34h4.35v9.43h-0.84v-0.64h-6.54v0.71h-0.8v-9.5
		h2.97c0.22-0.53,0.43-1.21,0.54-1.69L73.76,368.18z M76.49,370.45h-6.54v1.92h6.54V370.45z M76.49,373.13h-6.54v1.89h6.54V373.13z
		 M69.95,377.68h6.54v-1.91h-6.54V377.68z"/>
	<path d="M85.52,370.36h4.37v8.72h-0.83v-0.72h-7.86v0.77h-0.8v-8.77h4.29v-2.36l1.06,0.06c-0.01,0.08-0.07,0.14-0.23,0.17V370.36z
		 M84.7,371.17h-3.49v2.76h3.49V371.17z M81.21,374.72v2.83h3.49v-2.83H81.21z M89.06,371.17h-3.54v2.76h3.54V371.17z M85.52,377.55
		h3.54v-2.83h-3.54V377.55z"/>
	<path d="M94.3,368.88c-0.04,0.13-0.16,0.2-0.4,0.19c-0.42,1.96-0.64,4.1-0.64,5.4c0,0.9,0.04,1.81,0.16,2.38
		c0.23-0.59,0.74-1.85,0.91-2.27l0.5,0.53c-0.49,1.21-0.85,1.9-1.02,2.43c-0.06,0.2-0.1,0.4-0.1,0.56c0,0.13,0.02,0.25,0.06,0.37
		l-0.85,0.16c-0.38-1.14-0.53-2.53-0.53-4.13c0-1.57,0.25-3.77,0.64-5.84L94.3,368.88z M101.94,377.65
		c-0.43,0.02-0.88,0.04-1.32,0.04c-0.85,0-1.65-0.05-2.23-0.13c-1.48-0.22-2.16-1.03-2.16-1.99c0-0.83,0.46-1.52,1.13-2.31
		l0.78,0.34c-0.6,0.62-1.02,1.2-1.02,1.88c0,1.39,2.04,1.39,3.29,1.39c0.5,0,1.04-0.02,1.55-0.06L101.94,377.65z M96.38,370.32
		c1.55-0.04,3.63-0.18,5.23-0.46l0.07,0.84c-1.49,0.25-3.9,0.41-5.28,0.44L96.38,370.32z"/>
	<path d="M106.67,370.94c-0.04,0.07-0.12,0.12-0.24,0.12c-0.44,0.73-1.35,1.67-2.23,2.24c-0.14-0.14-0.41-0.36-0.56-0.48
		c0.85-0.52,1.72-1.39,2.1-2.16L106.67,370.94z M112.16,374.37l0.59,0.36c-0.02,0.06-0.1,0.1-0.17,0.12
		c-0.62,1.01-1.51,1.81-2.58,2.43c1.32,0.59,2.93,0.96,4.71,1.13c-0.18,0.18-0.37,0.53-0.48,0.76c-1.95-0.22-3.67-0.7-5.06-1.44
		c-1.5,0.71-3.27,1.16-5.11,1.44c-0.06-0.2-0.25-0.55-0.41-0.72c1.7-0.2,3.36-0.59,4.76-1.18c-0.7-0.47-1.3-1.02-1.78-1.65
		c-0.61,0.43-1.34,0.85-2.17,1.22c-0.11-0.19-0.35-0.47-0.53-0.6c1.87-0.74,3.21-1.81,3.9-2.78l1.03,0.18
		c-0.02,0.08-0.11,0.14-0.26,0.14c-0.17,0.2-0.35,0.41-0.55,0.62h3.96L112.16,374.37z M108.56,370c0,1.16-0.08,2.88-2.15,4.11
		c-0.12-0.17-0.4-0.42-0.58-0.55c1.8-1.04,1.95-2.46,1.95-3.49V370h-3.96v-0.76h4.88v-1.25l1.06,0.07
		c-0.01,0.08-0.07,0.14-0.23,0.16v1.02h4.93V370h-3.33v2.77c0,0.86-0.34,0.89-2.1,0.89c-0.04-0.22-0.13-0.5-0.23-0.72
		c0.64,0.01,1.18,0.01,1.34,0.01c0.17-0.01,0.2-0.05,0.2-0.19V370H108.56z M107.34,375.08l-0.13,0.11c0.49,0.67,1.18,1.24,2,1.7
		c0.91-0.48,1.69-1.08,2.24-1.81H107.34z M114.01,373.41c-0.43-0.67-1.37-1.7-2.18-2.43l0.64-0.37c0.8,0.71,1.77,1.7,2.22,2.38
		L114.01,373.41z"/>
	<path d="M125.66,374.96h-4.15c-0.12,0.76-0.4,1.48-0.97,2.11c1.45,0.88,3.49,1.17,6.25,1.32c-0.16,0.18-0.32,0.52-0.37,0.78
		c-2.82-0.19-4.92-0.58-6.44-1.57c-0.83,0.64-2.05,1.16-3.86,1.56c-0.1-0.18-0.3-0.52-0.47-0.7c1.76-0.34,2.93-0.8,3.68-1.36
		c-0.53-0.47-0.98-1.04-1.34-1.75l0.7-0.24c0.34,0.61,0.73,1.1,1.21,1.5c0.47-0.5,0.7-1.07,0.79-1.66h-3.71v-4.51h3.8v-1.05h-4.93
		v-0.74h10.57v0.74h-4.82v1.05h4.07V374.96z M117.76,371.1v1.28h3.02v-1.28H117.76z M117.76,374.31h3.01
		c0.01-0.22,0.01-0.43,0.01-0.66v-0.65h-3.02V374.31z M124.86,374.31v-1.31h-3.26v0.66c0,0.22,0,0.43-0.01,0.65H124.86z
		 M124.86,371.1h-3.26v1.28h3.26V371.1z"/>
	<path d="M131.5,368.51c-0.02,0.14-0.13,0.23-0.37,0.26c-0.1,1.39-0.22,4.57-0.22,6.34c0,1.79,0.89,2.65,2.4,2.65
		c1.46,0,2.95-0.73,4.32-2.28c0.12,0.19,0.4,0.58,0.54,0.71c-1.4,1.59-3.11,2.43-4.87,2.43c-2.18,0-3.3-1.26-3.3-3.53
		c0-1.51,0.11-5.23,0.19-6.7L131.5,368.51z"/>
	<path d="M140.13,369.61c0.9-0.04,8.29-0.56,9.85-0.58l0.01,0.9c-0.16-0.01-0.3-0.01-0.44-0.01c-0.7,0-1.28,0.12-2.05,0.61
		c-1.8,1.08-3.54,3.01-3.54,4.56c0,1.68,1.18,2.67,4.15,3.06l-0.4,0.84c-3.41-0.49-4.68-1.76-4.68-3.9c0-1.69,1.67-3.74,3.86-5.12
		c-1.27,0.08-4.86,0.36-6.4,0.5c-0.04,0.1-0.17,0.18-0.26,0.19L140.13,369.61z"/>
	<path d="M157.19,368.59c-0.04,0.05-0.12,0.07-0.23,0.05c-0.5,0.26-1.19,0.5-1.96,0.71v2.32h2.37v0.77h-2.37v0.91
		c0.55,0.42,1.94,1.61,2.3,1.93l-0.47,0.66c-0.36-0.4-1.2-1.2-1.83-1.76v4.97h-0.79v-5.45c-0.62,1.43-1.46,2.87-2.28,3.72
		c-0.1-0.24-0.3-0.56-0.46-0.75c0.94-0.94,1.98-2.66,2.55-4.22h-2.36v-0.77h2.54v-2.11c-0.78,0.18-1.59,0.34-2.36,0.47
		c-0.05-0.18-0.17-0.44-0.26-0.61c1.75-0.31,3.81-0.82,4.84-1.43L157.19,368.59z M158.31,369.46l1.02,0.06
		c-0.01,0.08-0.07,0.14-0.23,0.17v6.48h-0.79V369.46z M161.33,368.22l1.03,0.06c-0.01,0.1-0.07,0.14-0.23,0.17v9.58
		c0,0.58-0.17,0.83-0.53,0.96c-0.38,0.14-1.04,0.16-2.16,0.16c-0.05-0.22-0.18-0.59-0.31-0.82c0.44,0.01,0.85,0.01,1.19,0.01
		c0.96,0,1.01,0,1.01-0.31V368.22z"/>
	<path d="M173.82,368.86v9.12c0,1.1-0.53,1.12-2.79,1.09c-0.04-0.2-0.17-0.56-0.29-0.78c0.44,0.01,0.88,0.02,1.22,0.02
		c1,0,1.06,0,1.06-0.33v-2.6h-3.45v3.65h-0.78v-3.65h-3.15c-0.18,1.37-0.59,2.77-1.54,3.83c-0.12-0.16-0.43-0.43-0.61-0.54
		c1.34-1.51,1.48-3.67,1.48-5.39v-4.41H173.82z M165.75,373.27c0,0.42-0.01,0.86-0.05,1.33h3.08v-2.1h-3.03V373.27z M168.78,369.62
		h-3.03v2.12h3.03V369.62z M173.01,371.75v-2.12h-3.45v2.12H173.01z M169.56,374.6h3.45v-2.1h-3.45V374.6z"/>
	<path d="M179.5,368.51c-0.02,0.14-0.13,0.23-0.37,0.26c-0.1,1.39-0.22,4.57-0.22,6.34c0,1.79,0.89,2.65,2.4,2.65
		c1.46,0,2.95-0.73,4.32-2.28c0.12,0.19,0.4,0.58,0.54,0.71c-1.4,1.59-3.11,2.43-4.87,2.43c-2.18,0-3.3-1.26-3.3-3.53
		c0-1.51,0.11-5.23,0.19-6.7L179.5,368.51z"/>
	<path d="M188.13,369.61c0.9-0.04,8.29-0.56,9.85-0.58l0.01,0.9c-0.16-0.01-0.3-0.01-0.44-0.01c-0.7,0-1.28,0.12-2.05,0.61
		c-1.8,1.08-3.54,3.01-3.54,4.56c0,1.68,1.18,2.67,4.15,3.06l-0.4,0.84c-3.41-0.49-4.68-1.76-4.68-3.9c0-1.69,1.67-3.74,3.86-5.12
		c-1.27,0.08-4.86,0.36-6.4,0.5c-0.04,0.1-0.17,0.18-0.26,0.19L188.13,369.61z"/>
	<path d="M207.13,379.04c-1.21-1.42-3.08-3.19-4.7-4.46c-0.6-0.48-0.82-0.82-0.82-1.25c0-0.35,0.19-0.68,0.64-1.09
		c1.09-1.01,3.14-2.95,4.29-4.13l1.02,0.67c-0.02,0.02-0.11,0.12-0.26,0.12c-0.05,0-0.1-0.01-0.14-0.02
		c-1.2,1.15-3.07,2.78-4.05,3.71c-0.29,0.28-0.52,0.52-0.52,0.71c0,0.2,0.22,0.44,0.64,0.76c1.58,1.22,3.27,2.77,4.74,4.35
		L207.13,379.04z"/>
	<path d="M218.97,370.62c-1.02,0.36-2.38,0.59-3.68,0.68c-0.5,2.75-1.24,5.48-2.2,7.5l-0.86-0.32c0.98-1.93,1.7-4.41,2.17-7.14
		c-0.24,0.01-1.85,0.02-2.21,0.01l-0.01-0.82c0.19,0.01,0.44,0.01,0.72,0.01c0.11,0,1.31,0,1.62-0.01c0.12-0.77,0.24-1.61,0.31-2.34
		l1.24,0.12c-0.01,0.13-0.18,0.23-0.35,0.24c-0.07,0.53-0.19,1.17-0.3,1.91c1.17-0.11,2.36-0.31,3.36-0.67L218.97,370.62z
		 M222.18,378.55c-0.47,0.04-0.97,0.06-1.46,0.06c-0.97,0-1.92-0.08-2.5-0.24c-0.85-0.24-1.34-0.86-1.33-1.66
		c0.01-0.53,0.24-1.13,0.74-1.74l0.72,0.31c-0.42,0.49-0.62,0.96-0.62,1.33c0,0.95,0.91,1.16,2.87,1.16c0.53,0,1.08-0.02,1.56-0.07
		L222.18,378.55z M217.49,372.83c1.24-0.4,2.94-0.65,4.35-0.61v0.82c-1.36-0.04-2.93,0.16-4.15,0.54L217.49,372.83z M219.6,368.66
		c0.59,0.43,1.29,1.13,1.67,1.63l-0.44,0.38c-0.35-0.52-1.1-1.26-1.62-1.64L219.6,368.66z M221.15,367.87
		c0.59,0.43,1.29,1.1,1.66,1.62l-0.44,0.38c-0.34-0.47-1.04-1.2-1.61-1.63L221.15,367.87z"/>
	<path d="M233.98,370.75c-1.09,0.31-2.55,0.53-3.99,0.66c0.47,1.63,0.97,2.6,2.27,3.17l-0.59,0.73c-0.55-0.42-1.12-0.74-2.67-0.83
		l-0.14-0.71c0.59,0.05,1.03,0.12,1.33,0.18c-0.42-0.5-0.74-1.27-1.07-2.48c-0.54,0.05-1.27,0.07-1.99,0.07
		c-0.78,0-2.05-0.01-2.82-0.04v-0.82c0.72,0.04,1.74,0.04,2.83,0.04c0.61,0,1.31-0.01,1.79-0.06c-0.14-0.65-0.28-1.54-0.42-2.46
		l1.28,0.02c-0.01,0.14-0.12,0.23-0.31,0.28c0.07,0.68,0.19,1.44,0.32,2.1c1.38-0.12,2.94-0.37,3.99-0.71L233.98,370.75z
		 M231.84,378.64c-0.58,0.02-1.19,0.04-2.23,0.04c-2.51,0-4.28-0.77-4.28-2.37c0-0.68,0.42-1.38,1.08-2.02l0.65,0.52
		c-0.54,0.43-0.86,1.02-0.86,1.48c0,1.19,1.54,1.57,3.44,1.57c1.04,0,1.66-0.02,2.27-0.06L231.84,378.64z"/>
	<path d="M237.61,369.61c-0.02,0.11-0.16,0.18-0.32,0.19c-0.14,0.9-0.23,1.98-0.23,2.99c0,0.44,0.02,0.88,0.05,1.26
		c0.14,2.04,0.97,3.27,1.9,3.26c0.48,0,1.1-1.22,1.54-2.57c0.17,0.17,0.49,0.4,0.7,0.52c-0.55,1.62-1.25,2.94-2.24,2.96
		c-1.52,0.02-2.58-1.82-2.75-4.13c-0.04-0.46-0.05-0.96-0.05-1.5c0-1.06,0.06-2.21,0.18-3.23L237.61,369.61z M245.57,375.19
		c-0.34-2.1-1.4-3.61-3.02-4.51l0.53-0.65c1.75,0.94,3.03,2.66,3.38,4.88L245.57,375.19z"/>
</g>
</svg>
