<?xml version="1.0" encoding="utf-8"?>
<!-- Generator: Adobe Illustrator 25.0.0, SVG Export Plug-In . SVG Version: 6.00 Build 0)  -->
<svg version="1.1" id="obj" xmlns="http://www.w3.org/2000/svg" xmlns:xlink="http://www.w3.org/1999/xlink" x="0px"
	 y="0px" viewBox="0 0 94.99 61.94" style="enable-background:new 0 0 94.99 61.94;" xml:space="preserve">
<style type="text/css">
	.st0{fill:#FFFFFF;}
	#icon{
	animete 1.2;
	}
</style>
<g>
	<g>
		<circle cx="-9.34" cy="-170.09" r="33.45"/>
		<g>
			<path class="st0" d="M4.24-177.6c-0.37-1.09-0.8-2.25-1.32-3.46c-0.51-1.21-1.18-2.32-1.99-3.33c-0.81-1.01-1.82-1.84-3.03-2.49
				c-1.21-0.65-2.71-0.97-4.5-0.97c-2.42,0-4.33,0.45-5.72,1.34c-1.39,0.9-2.45,2.14-3.16,3.73c-0.71,1.59-1.17,3.49-1.37,5.69
				c-0.2,2.2-0.3,4.62-0.3,7.24c0,3.45,0.2,6.3,0.6,8.55c0.4,2.25,1.02,4.05,1.86,5.37c0.85,1.33,1.94,2.25,3.28,2.78
				c1.34,0.53,2.94,0.8,4.8,0.8c1.49,0,2.84-0.3,4.05-0.9c1.21-0.6,2.28-1.38,3.21-2.36c0.93-0.98,1.71-2.1,2.34-3.36
				c0.63-1.26,1.09-2.57,1.39-3.93h0.8v10.54h-0.8c-0.17-0.4-0.37-0.67-0.6-0.82c-0.23-0.15-0.58-0.22-1.04-0.22
				c-0.4,0-0.91,0.09-1.54,0.27c-0.63,0.18-1.35,0.38-2.16,0.6c-0.81,0.22-1.7,0.41-2.66,0.6c-0.96,0.18-1.97,0.27-3.03,0.27
				c-2.42,0-4.76-0.47-7.01-1.42c-2.26-0.94-4.24-2.24-5.94-3.88c-1.71-1.64-3.08-3.57-4.1-5.79c-1.03-2.22-1.54-4.62-1.54-7.21
				c0-2.82,0.57-5.37,1.72-7.66c1.14-2.29,2.61-4.24,4.4-5.87c1.79-1.62,3.79-2.88,5.99-3.75c2.2-0.88,4.37-1.32,6.49-1.32
				c1.06,0,2.05,0.1,2.96,0.3c0.91,0.2,1.76,0.41,2.54,0.62c0.78,0.22,1.48,0.42,2.11,0.62c0.63,0.2,1.16,0.3,1.59,0.3
				c0.46,0,0.81-0.06,1.04-0.17c0.23-0.12,0.4-0.41,0.5-0.87h0.8v10.14H4.24z"/>
		</g>
	</g>
	<g>
		<path d="M46.56-139.5c-0.72,0.35-2.12,0.7-3.92,0.7c-4.04,0-7.3-2.62-7.3-7.94c0-5.07,3.15-8.23,7.75-8.23
			c1.88,0,2.97,0.39,3.46,0.64l-0.45,1.44c-0.72-0.35-1.73-0.64-2.97-0.64c-3.57,0-6,2.39-6,6.72c0,4.13,2.23,6.56,5.9,6.56
			c1.2,0,2.37-0.27,3.16-0.64L46.56-139.5z"/>
		<path d="M57.35-139.02h-8.29v-15.72H57v1.44h-6.23v5.32h5.86v1.42h-5.86v6.08h6.58V-139.02z"/>
		<path d="M70.97-139.02h-1.71l-5.01-8.27c-1.05-1.75-2.06-3.51-2.83-5.24l-0.08,0.02c0.15,2,0.17,3.84,0.17,6.56v6.93h-1.61v-15.72
			h1.79l5.07,8.27c1.11,1.88,2.02,3.51,2.74,5.14l0.04-0.02c-0.17-2.19-0.21-4.06-0.21-6.54v-6.85h1.63V-139.02z"/>
		<path d="M83.68-153.27h-4.64v14.25h-1.71v-14.25h-4.62v-1.44h10.97V-153.27z"/>
		<path d="M91.53-146.55c1.22,0.39,1.94,1.57,2.31,3.28c0.49,2.27,0.84,3.65,1.15,4.25h-1.77c-0.25-0.45-0.6-1.84-1.01-3.79
			c-0.45-2.19-1.32-3.16-3.18-3.16h-1.92v6.95H85.4v-15.49c0.97-0.21,2.33-0.33,3.57-0.33c2.04,0,3.38,0.41,4.31,1.28
			c0.74,0.68,1.18,1.75,1.18,2.93c0,2.08-1.26,3.42-2.93,4.02V-146.55z M89.13-147.29c2.19,0,3.59-1.24,3.59-3.13
			c0-2.33-1.75-3.05-3.67-3.05c-0.93,0-1.59,0.08-1.94,0.17v6.02H89.13z"/>
		<path d="M108.53-139.02h-1.82l-1.69-5.09h-5.47l-1.65,5.09h-1.75l5.2-15.72h1.98L108.53-139.02z M104.67-145.48l-1.55-4.66
			c-0.33-1.07-0.6-2.06-0.8-2.99h-0.06c-0.21,0.95-0.49,1.94-0.78,2.93l-1.57,4.72H104.67z"/>
		<path d="M110.82-154.74h1.71v15.72h-1.71V-154.74z"/>
		<path d="M122.19-146.55c1.22,0.39,1.94,1.57,2.31,3.28c0.49,2.27,0.84,3.65,1.15,4.25h-1.77c-0.25-0.45-0.6-1.84-1.01-3.79
			c-0.45-2.19-1.32-3.16-3.18-3.16h-1.92v6.95h-1.71v-15.49c0.97-0.21,2.33-0.33,3.57-0.33c2.04,0,3.38,0.41,4.31,1.28
			c0.74,0.68,1.18,1.75,1.18,2.93c0,2.08-1.26,3.42-2.93,4.02V-146.55z M119.8-147.29c2.19,0,3.59-1.24,3.59-3.13
			c0-2.33-1.75-3.05-3.67-3.05c-0.93,0-1.59,0.08-1.94,0.17v6.02H119.8z"/>
		<path d="M143.07-139.5c-0.72,0.35-2.12,0.7-3.92,0.7c-4.04,0-7.3-2.62-7.3-7.94c0-5.07,3.15-8.23,7.75-8.23
			c1.88,0,2.97,0.39,3.46,0.64l-0.45,1.44c-0.72-0.35-1.73-0.64-2.97-0.64c-3.57,0-6,2.39-6,6.72c0,4.13,2.23,6.56,5.9,6.56
			c1.2,0,2.37-0.27,3.16-0.64L143.07-139.5z"/>
		<path d="M156.51-139.02h-1.71v-7.51h-7.51v7.51h-1.71v-15.7h1.71v6.7h7.51v-6.7h1.71V-139.02z"/>
		<path d="M171.26-139.02h-1.82l-1.69-5.09h-5.47l-1.65,5.09h-1.75l5.2-15.72h1.98L171.26-139.02z M167.4-145.48l-1.55-4.66
			c-0.33-1.07-0.6-2.06-0.8-2.99h-0.06c-0.21,0.95-0.49,1.94-0.78,2.93l-1.57,4.72H167.4z"/>
		<path d="M188.39-139.02h-1.69l-0.39-7.07c-0.12-2.25-0.29-5.16-0.27-6.77h-0.06c-0.52,1.77-1.15,3.71-1.92,5.9l-2.81,7.88h-1.26
			l-2.62-7.71c-0.76-2.27-1.36-4.25-1.79-6.06h-0.06c-0.04,1.92-0.17,4.52-0.31,6.93l-0.43,6.91h-1.63l1.09-15.72h2.1l2.76,7.98
			c0.66,1.96,1.17,3.63,1.59,5.26h0.06c0.39-1.59,0.93-3.24,1.63-5.26l2.87-7.98h2.14L188.39-139.02z"/>
		<path d="M197.51-147.44c1.48,0.35,3.24,1.59,3.24,3.96c0,1.4-0.54,2.39-1.26,3.09c-1.05,1.03-2.74,1.49-5.11,1.49
			c-1.3,0-2.27-0.1-2.91-0.17v-15.45c0.87-0.19,2.1-0.33,3.38-0.33c1.94,0,3.22,0.37,4.15,1.16c0.74,0.64,1.18,1.55,1.18,2.72
			c0,1.55-1.05,2.89-2.66,3.46V-147.44z M195.02-148.01c2.08,0,3.42-1.2,3.42-2.81v-0.02c0-1.86-1.36-2.66-3.51-2.66
			c-0.91,0-1.44,0.06-1.75,0.14v5.34H195.02z M193.18-140.36c0.39,0.08,0.95,0.1,1.67,0.1c2.17,0,4.11-0.85,4.11-3.22
			c0-2.35-2.04-3.22-4.13-3.22h-1.65V-140.36z"/>
		<path d="M211.73-139.02h-8.29v-15.72h7.94v1.44h-6.23v5.32h5.86v1.42h-5.86v6.08h6.58V-139.02z"/>
		<path d="M220.4-146.55c1.22,0.39,1.94,1.57,2.31,3.28c0.49,2.27,0.84,3.65,1.15,4.25h-1.77c-0.25-0.45-0.6-1.84-1.01-3.79
			c-0.45-2.19-1.32-3.16-3.18-3.16h-1.92v6.95h-1.71v-15.49c0.97-0.21,2.33-0.33,3.57-0.33c2.04,0,3.38,0.41,4.31,1.28
			c0.74,0.68,1.18,1.75,1.18,2.93c0,2.08-1.26,3.42-2.93,4.02V-146.55z M218-147.29c2.19,0,3.59-1.24,3.59-3.13
			c0-2.33-1.75-3.05-3.67-3.05c-0.93,0-1.59,0.08-1.94,0.17v6.02H218z"/>
		<path d="M243.53-147.02c0,5.53-3.1,8.25-6.81,8.25c-3.9,0-6.66-3.07-6.66-7.98c0-5.11,2.91-8.23,6.85-8.23
			C240.93-154.99,243.53-151.77,243.53-147.02z M231.85-146.8c0,3.34,1.73,6.6,4.93,6.6c3.24,0,4.95-3.15,4.95-6.74
			c0-3.16-1.55-6.62-4.91-6.62C233.36-153.56,231.85-150.14,231.85-146.8z"/>
		<path d="M246.13-139.02v-15.72h7.92v1.44h-6.21v5.59h5.71v1.42h-5.71v7.26H246.13z"/>
		<path d="M271.97-139.5c-0.72,0.35-2.12,0.7-3.92,0.7c-4.04,0-7.3-2.62-7.3-7.94c0-5.07,3.15-8.23,7.75-8.23
			c1.88,0,2.97,0.39,3.46,0.64l-0.45,1.44c-0.72-0.35-1.73-0.64-2.97-0.64c-3.57,0-6,2.39-6,6.72c0,4.13,2.23,6.56,5.9,6.56
			c1.2,0,2.37-0.27,3.16-0.64L271.97-139.5z"/>
		<path d="M287.03-147.02c0,5.53-3.1,8.25-6.81,8.25c-3.9,0-6.66-3.07-6.66-7.98c0-5.11,2.91-8.23,6.85-8.23
			C284.43-154.99,287.03-151.77,287.03-147.02z M275.36-146.8c0,3.34,1.73,6.6,4.93,6.6c3.24,0,4.95-3.15,4.95-6.74
			c0-3.16-1.55-6.62-4.91-6.62C276.86-153.56,275.36-150.14,275.36-146.8z"/>
		<path d="M304.46-139.02h-1.69l-0.39-7.07c-0.12-2.25-0.29-5.16-0.27-6.77h-0.06c-0.52,1.77-1.15,3.71-1.92,5.9l-2.81,7.88h-1.26
			l-2.62-7.71c-0.76-2.27-1.36-4.25-1.79-6.06h-0.06c-0.04,1.92-0.17,4.52-0.31,6.93l-0.43,6.91h-1.63l1.09-15.72h2.1l2.76,7.98
			c0.66,1.96,1.17,3.63,1.59,5.26h0.06c0.39-1.59,0.93-3.24,1.63-5.26l2.87-7.98h2.14L304.46-139.02z"/>
		<path d="M322.38-139.02h-1.69l-0.39-7.07c-0.12-2.25-0.29-5.16-0.27-6.77h-0.06c-0.52,1.77-1.15,3.71-1.92,5.9l-2.81,7.88h-1.26
			l-2.62-7.71c-0.76-2.27-1.36-4.25-1.79-6.06h-0.06c-0.04,1.92-0.17,4.52-0.31,6.93l-0.43,6.91h-1.63l1.09-15.72h2.1l2.76,7.98
			c0.66,1.96,1.17,3.63,1.59,5.26h0.06c0.39-1.59,0.93-3.24,1.63-5.26l2.87-7.98h2.14L322.38-139.02z"/>
		<path d="M333.75-139.02h-8.29v-15.72h7.94v1.44h-6.23v5.32h5.86v1.42h-5.86v6.08h6.58V-139.02z"/>
		<path d="M342.42-146.55c1.22,0.39,1.94,1.57,2.31,3.28c0.49,2.27,0.84,3.65,1.15,4.25h-1.77c-0.25-0.45-0.6-1.84-1.01-3.79
			c-0.45-2.19-1.32-3.16-3.18-3.16H338v6.95h-1.71v-15.49c0.97-0.21,2.33-0.33,3.57-0.33c2.04,0,3.38,0.41,4.31,1.28
			c0.74,0.68,1.18,1.75,1.18,2.93c0,2.08-1.26,3.42-2.93,4.02V-146.55z M340.03-147.29c2.19,0,3.59-1.24,3.59-3.13
			c0-2.33-1.75-3.05-3.67-3.05c-0.93,0-1.59,0.08-1.94,0.17v6.02H340.03z"/>
		<path d="M358.49-139.5c-0.72,0.35-2.12,0.7-3.92,0.7c-4.04,0-7.3-2.62-7.3-7.94c0-5.07,3.15-8.23,7.75-8.23
			c1.88,0,2.97,0.39,3.46,0.64l-0.45,1.44c-0.72-0.35-1.73-0.64-2.97-0.64c-3.57,0-6,2.39-6,6.72c0,4.13,2.23,6.56,5.9,6.56
			c1.2,0,2.37-0.27,3.16-0.64L358.49-139.5z"/>
		<path d="M369.29-139.02h-8.29v-15.72h7.94v1.44h-6.23v5.32h5.86v1.42h-5.86v6.08h6.58V-139.02z"/>
	</g>
	<g>
		<path d="M69.09-192.85c-0.12,0.21-0.37,0.37-0.66,0.5c-1.86,4.46-5.12,10.07-8.63,13.46c-0.62-0.45-1.69-1.07-2.48-1.49
			c3.14-2.81,5.7-6.94,7.06-10.24l-15.81,4.13v10.69c0,4.05,2.44,5.41,5.74,5.41h6.73c1.69,0,4.54-0.25,6.15-0.45
			c0,0.91,0.04,2.02,0.08,2.89c-1.65,0.21-4.54,0.33-6.11,0.33h-6.89c-5.2,0-8.67-2.44-8.67-8.13v-9.99l-10.4,2.68l-0.7-2.77
			l11.1-2.77v-12.55l4,0.17c-0.08,0.49-0.45,0.74-1.03,0.83v10.77l17.46-4.5l0.45-0.33L69.09-192.85z"/>
		<path d="M75.03-198.92c4.29,1.36,9.25,3.51,12.3,5.61l-1.57,2.6c-2.97-2.11-7.84-4.29-12.06-5.74L75.03-198.92z M74.86-170.31
			c14.66-4.54,24.4-12.76,29.35-24.19c0.87,0.7,1.82,1.24,2.68,1.69c-5.16,11.31-15.23,20.1-29.23,24.77
			c-0.04,0.37-0.29,0.78-0.58,0.95L74.86-170.31z"/>
		<path d="M134.83-180.3c-4.21-2.27-9.99-4.95-14.49-6.73v20.64h-3.1v-35.87l4.17,0.25c-0.04,0.45-0.37,0.74-1.07,0.87v12.05
			l0.62-0.87c4.83,1.78,11.23,4.62,15.52,6.89L134.83-180.3z"/>
		<path d="M149.41-171.02c10.49-2.93,18.82-7.97,23.9-16.97c0.54,0.7,1.57,1.57,2.19,2.06c-5.57,9.49-14.78,15.03-27.21,18.29
			c-0.08,0.33-0.33,0.7-0.66,0.83l-1.74-2.89l0.5-0.78v-30.42l4.25,0.21c-0.04,0.45-0.41,0.83-1.24,0.91V-171.02z"/>
		<path d="M209.85-198.51c-0.08,0.17-0.33,0.29-0.54,0.37c-2.23,5.28-5.78,9.87-9.78,13.21c-0.62-0.54-1.78-1.28-2.52-1.69
			c3.8-2.77,6.85-6.77,8.21-10.24h-29.56v-2.81h31.13l0.45-0.21L209.85-198.51z M193.75-191c-0.04,0.33-0.41,0.62-0.95,0.7
			c-1.2,9.74-4.54,19.03-13.04,23.94c-0.58-0.49-1.65-1.44-2.43-1.9c8.42-4.62,11.43-13.25,12.42-23.2L193.75-191z"/>
		<path d="M251.2-198.76v2.56h-9.95l2.19,0.54c-0.12,0.25-0.41,0.37-0.91,0.37c-0.58,1.32-1.44,3.1-2.31,4.54h8.79v22.21
			c0,3.47-1.65,3.55-8.79,3.55c-0.17-0.78-0.58-1.98-0.99-2.72c1.65,0.04,3.22,0.08,4.38,0.08c2.52,0,2.72,0,2.72-0.95v-19.69h-8.79
			v3.67c0,0.74,0.17,0.87,1.32,0.87h4.09c0.87,0,1.07-0.21,1.16-1.98c0.49,0.37,1.49,0.74,2.19,0.87c-0.25,2.64-0.99,3.3-3.01,3.3
			h-4.67c-2.89,0-3.55-0.58-3.55-3.01v-3.72h-5.49c-0.54,4.5-2.23,7.27-8.59,8.79c-0.21-0.62-0.87-1.53-1.36-1.98
			c5.24-1.07,6.89-3.01,7.43-6.81h-7.76v23.24h-2.68v-25.72h8.42c-0.46-1.44-1.28-3.39-2.15-4.87l2.6-0.58
			c0.99,1.57,1.98,3.72,2.35,5.08l-1.36,0.37h10.73c0.82-1.53,1.82-3.8,2.43-5.45h-25.47v-2.56h16.93v-4.67l3.63,0.25
			c-0.04,0.29-0.25,0.5-0.83,0.54v3.88H251.2z M240.71-169.28h-13.34v2.52h-2.52v-12.72h15.85V-169.28z M238.15-177.25h-10.78v5.74
			h10.78V-177.25z"/>
		<path d="M273.84-171.14h17.21v2.81h-37.19v-2.81h17.05v-24.73h-15.03v-2.77h33.27v2.77h-15.32V-171.14z"/>
		<path d="M314.83-203.3c-0.12,0.33-0.46,0.54-0.87,0.62c4.05,5.61,11.52,11.15,18,13.95c-0.66,0.66-1.32,1.65-1.78,2.48
			c-6.56-3.22-13.99-8.88-17.96-14.45c-3.43,5.12-10.32,10.98-17.55,14.61c-0.33-0.58-1.03-1.65-1.61-2.23
			c7.27-3.51,14.41-9.7,17.67-15.23L314.83-203.3z M295.22-179.73v-2.64h34.64v2.64H310l0.5,0.17c-0.12,0.29-0.46,0.41-0.99,0.45
			c-1.24,2.81-3.1,6.52-4.87,9.58c5.49-0.12,11.89-0.33,18.16-0.54c-1.86-2.15-4-4.38-6.07-6.19l2.35-1.28
			c3.88,3.34,8.05,7.88,9.99,11.02l-2.48,1.57c-0.54-0.87-1.2-1.86-2.02-2.89c-10.03,0.54-20.68,0.99-27.29,1.2
			c-0.08,0.37-0.33,0.54-0.66,0.58l-1.03-3.3c1.73,0,3.76-0.04,6.03-0.12c1.69-2.97,3.63-7.02,4.91-10.24H295.22z M302.28-190.38
			h20.02v2.6h-20.02V-190.38z"/>
	</g>
</g>
<g>
	<g>
		<path d="M2.92,54c-0.19,0.09-0.55,0.18-1.02,0.18c-1.05,0-1.9-0.68-1.9-2.07c0-1.32,0.82-2.14,2.02-2.14c0.49,0,0.77,0.1,0.9,0.17
			L2.8,50.51c-0.19-0.09-0.45-0.17-0.77-0.17c-0.93,0-1.56,0.62-1.56,1.75c0,1.07,0.58,1.71,1.54,1.71c0.31,0,0.62-0.07,0.82-0.17
			L2.92,54z"/>
		<path d="M5.73,54.12H3.57v-4.09h2.07v0.38H4.02v1.39h1.53v0.37H4.02v1.58h1.71V54.12z"/>
		<path d="M9.28,54.12H8.83l-1.31-2.15c-0.27-0.46-0.54-0.91-0.74-1.36l-0.02,0.01c0.04,0.52,0.04,1,0.04,1.71v1.81H6.4v-4.09h0.47
			l1.32,2.15c0.29,0.49,0.53,0.91,0.71,1.34l0.01-0.01c-0.04-0.57-0.05-1.06-0.05-1.7v-1.78h0.42V54.12z"/>
		<path d="M12.59,50.41h-1.21v3.71h-0.45v-3.71h-1.2v-0.38h2.86V50.41z"/>
		<path d="M14.63,52.16c0.32,0.1,0.5,0.41,0.6,0.85c0.13,0.59,0.22,0.95,0.3,1.11h-0.46c-0.06-0.12-0.16-0.48-0.26-0.99
			c-0.12-0.57-0.34-0.82-0.83-0.82h-0.5v1.81h-0.45v-4.03c0.25-0.05,0.61-0.09,0.93-0.09c0.53,0,0.88,0.11,1.12,0.33
			c0.19,0.18,0.31,0.46,0.31,0.76c0,0.54-0.33,0.89-0.76,1.05V52.16z M14.01,51.97c0.57,0,0.93-0.32,0.93-0.82
			c0-0.61-0.46-0.8-0.96-0.8c-0.24,0-0.41,0.02-0.5,0.04v1.57H14.01z"/>
		<path d="M19.06,54.12h-0.47l-0.44-1.33h-1.42l-0.43,1.33h-0.46l1.35-4.09h0.52L19.06,54.12z M18.06,52.44l-0.4-1.21
			c-0.09-0.28-0.16-0.54-0.21-0.78h-0.02c-0.05,0.25-0.13,0.5-0.2,0.76l-0.41,1.23H18.06z"/>
		<path d="M19.66,50.03h0.45v4.09h-0.45V50.03z"/>
		<path d="M22.62,52.16c0.32,0.1,0.5,0.41,0.6,0.85c0.13,0.59,0.22,0.95,0.3,1.11h-0.46c-0.06-0.12-0.16-0.48-0.26-0.99
			c-0.12-0.57-0.34-0.82-0.83-0.82h-0.5v1.81h-0.45v-4.03c0.25-0.05,0.61-0.09,0.93-0.09c0.53,0,0.88,0.11,1.12,0.33
			c0.19,0.18,0.31,0.46,0.31,0.76c0,0.54-0.33,0.89-0.76,1.05V52.16z M22,51.97c0.57,0,0.93-0.32,0.93-0.82
			c0-0.61-0.46-0.8-0.96-0.8c-0.24,0-0.41,0.02-0.5,0.04v1.57H22z"/>
		<path d="M28.06,54c-0.19,0.09-0.55,0.18-1.02,0.18c-1.05,0-1.9-0.68-1.9-2.07c0-1.32,0.82-2.14,2.02-2.14
			c0.49,0,0.77,0.1,0.9,0.17l-0.12,0.38c-0.19-0.09-0.45-0.17-0.77-0.17c-0.93,0-1.56,0.62-1.56,1.75c0,1.07,0.58,1.71,1.54,1.71
			c0.31,0,0.62-0.07,0.82-0.17L28.06,54z"/>
		<path d="M31.56,54.12h-0.45v-1.96h-1.96v1.96h-0.45v-4.09h0.45v1.75h1.96v-1.75h0.45V54.12z"/>
		<path d="M35.4,54.12h-0.47l-0.44-1.33h-1.42l-0.43,1.33h-0.46l1.35-4.09h0.52L35.4,54.12z M34.4,52.44l-0.4-1.21
			c-0.09-0.28-0.16-0.54-0.21-0.78h-0.02c-0.05,0.25-0.13,0.5-0.2,0.76l-0.41,1.23H34.4z"/>
		<path d="M39.86,54.12h-0.44l-0.1-1.84c-0.03-0.59-0.08-1.34-0.07-1.76h-0.02c-0.13,0.46-0.3,0.97-0.5,1.54L38,54.11h-0.33
			l-0.68-2.01c-0.2-0.59-0.35-1.11-0.47-1.58h-0.02c-0.01,0.5-0.04,1.18-0.08,1.81l-0.11,1.8h-0.42l0.29-4.09h0.55l0.72,2.08
			c0.17,0.51,0.31,0.95,0.41,1.37h0.02c0.1-0.41,0.24-0.84,0.42-1.37l0.75-2.08h0.56L39.86,54.12z"/>
		<path d="M42.24,51.93c0.39,0.09,0.84,0.41,0.84,1.03c0,0.37-0.14,0.62-0.33,0.81c-0.27,0.27-0.71,0.39-1.33,0.39
			c-0.34,0-0.59-0.03-0.76-0.04v-4.02c0.23-0.05,0.55-0.09,0.88-0.09c0.5,0,0.84,0.1,1.08,0.3c0.19,0.17,0.31,0.4,0.31,0.71
			c0,0.4-0.27,0.75-0.69,0.9V51.93z M41.59,51.78c0.54,0,0.89-0.31,0.89-0.73v-0.01c0-0.48-0.35-0.69-0.91-0.69
			c-0.24,0-0.38,0.02-0.46,0.04v1.39H41.59z M41.11,53.77c0.1,0.02,0.25,0.03,0.44,0.03c0.56,0,1.07-0.22,1.07-0.84
			c0-0.61-0.53-0.84-1.07-0.84h-0.43V53.77z"/>
		<path d="M45.94,54.12h-2.16v-4.09h2.07v0.38h-1.62v1.39h1.53v0.37h-1.53v1.58h1.71V54.12z"/>
		<path d="M48.2,52.16c0.32,0.1,0.5,0.41,0.6,0.85c0.13,0.59,0.22,0.95,0.3,1.11h-0.46c-0.06-0.12-0.16-0.48-0.26-0.99
			c-0.12-0.57-0.34-0.82-0.83-0.82h-0.5v1.81H46.6v-4.03c0.25-0.05,0.61-0.09,0.93-0.09c0.53,0,0.88,0.11,1.12,0.33
			c0.19,0.18,0.31,0.46,0.31,0.76c0,0.54-0.33,0.89-0.76,1.05V52.16z M47.58,51.97c0.57,0,0.93-0.32,0.93-0.82
			c0-0.61-0.46-0.8-0.96-0.8c-0.24,0-0.41,0.02-0.5,0.04v1.57H47.58z"/>
		<path d="M54.22,52.04c0,1.44-0.81,2.15-1.77,2.15c-1.02,0-1.73-0.8-1.73-2.08c0-1.33,0.76-2.14,1.78-2.14
			C53.55,49.97,54.22,50.8,54.22,52.04z M51.18,52.1c0,0.87,0.45,1.72,1.28,1.72c0.84,0,1.29-0.82,1.29-1.76
			c0-0.82-0.4-1.72-1.28-1.72C51.57,50.34,51.18,51.23,51.18,52.1z"/>
		<path d="M54.9,54.12v-4.09h2.06v0.38h-1.62v1.46h1.49v0.37h-1.49v1.89H54.9z"/>
		<path d="M61.63,54c-0.19,0.09-0.55,0.18-1.02,0.18c-1.05,0-1.9-0.68-1.9-2.07c0-1.32,0.82-2.14,2.02-2.14
			c0.49,0,0.77,0.1,0.9,0.17l-0.12,0.38c-0.19-0.09-0.45-0.17-0.77-0.17c-0.93,0-1.56,0.62-1.56,1.75c0,1.07,0.58,1.71,1.54,1.71
			c0.31,0,0.62-0.07,0.82-0.17L61.63,54z"/>
		<path d="M65.55,52.04c0,1.44-0.81,2.15-1.77,2.15c-1.02,0-1.73-0.8-1.73-2.08c0-1.33,0.76-2.14,1.78-2.14
			C64.88,49.97,65.55,50.8,65.55,52.04z M62.51,52.1c0,0.87,0.45,1.72,1.28,1.72c0.84,0,1.29-0.82,1.29-1.76
			c0-0.82-0.4-1.72-1.28-1.72C62.9,50.34,62.51,51.23,62.51,52.1z"/>
		<path d="M70.09,54.12h-0.44l-0.1-1.84c-0.03-0.59-0.08-1.34-0.07-1.76h-0.02c-0.13,0.46-0.3,0.97-0.5,1.54l-0.73,2.05h-0.33
			l-0.68-2.01c-0.2-0.59-0.35-1.11-0.47-1.58h-0.02c-0.01,0.5-0.04,1.18-0.08,1.81l-0.11,1.8h-0.42l0.29-4.09h0.55l0.72,2.08
			c0.17,0.51,0.31,0.95,0.41,1.37h0.02c0.1-0.41,0.24-0.84,0.42-1.37l0.75-2.08h0.56L70.09,54.12z"/>
		<path d="M74.76,54.12h-0.44l-0.1-1.84c-0.03-0.59-0.08-1.34-0.07-1.76h-0.02c-0.13,0.46-0.3,0.97-0.5,1.54l-0.73,2.05h-0.33
			l-0.68-2.01c-0.2-0.59-0.35-1.11-0.47-1.58h-0.02c-0.01,0.5-0.04,1.18-0.08,1.81l-0.11,1.8h-0.42l0.29-4.09h0.55l0.72,2.08
			c0.17,0.51,0.31,0.95,0.41,1.37h0.02c0.1-0.41,0.24-0.84,0.42-1.37l0.75-2.08h0.56L74.76,54.12z"/>
		<path d="M77.72,54.12h-2.16v-4.09h2.07v0.38h-1.62v1.39h1.53v0.37h-1.53v1.58h1.71V54.12z"/>
		<path d="M79.98,52.16c0.32,0.1,0.5,0.41,0.6,0.85c0.13,0.59,0.22,0.95,0.3,1.11h-0.46c-0.06-0.12-0.16-0.48-0.26-0.99
			c-0.12-0.57-0.34-0.82-0.83-0.82h-0.5v1.81h-0.45v-4.03c0.25-0.05,0.61-0.09,0.93-0.09c0.53,0,0.88,0.11,1.12,0.33
			c0.19,0.18,0.31,0.46,0.31,0.76c0,0.54-0.33,0.89-0.76,1.05V52.16z M79.36,51.97c0.57,0,0.93-0.32,0.93-0.82
			c0-0.61-0.46-0.8-0.96-0.8c-0.24,0-0.41,0.02-0.5,0.04v1.57H79.36z"/>
		<path d="M84.16,54c-0.19,0.09-0.55,0.18-1.02,0.18c-1.05,0-1.9-0.68-1.9-2.07c0-1.32,0.82-2.14,2.02-2.14
			c0.49,0,0.77,0.1,0.9,0.17l-0.12,0.38c-0.19-0.09-0.45-0.17-0.77-0.17c-0.93,0-1.56,0.62-1.56,1.75c0,1.07,0.58,1.71,1.54,1.71
			c0.31,0,0.62-0.07,0.82-0.17L84.16,54z"/>
		<path d="M86.98,54.12h-2.16v-4.09h2.07v0.38h-1.62v1.39h1.53v0.37h-1.53v1.58h1.71V54.12z"/>
	</g>
	<g>
		<path d="M14.01,40.54c-0.03,0.05-0.1,0.1-0.17,0.13c-0.48,1.16-1.33,2.62-2.25,3.51c-0.16-0.12-0.44-0.28-0.65-0.39
			c0.82-0.73,1.48-1.81,1.84-2.67L8.67,42.2v2.78c0,1.05,0.63,1.41,1.49,1.41h1.75c0.44,0,1.18-0.06,1.6-0.12
			c0,0.24,0.01,0.53,0.02,0.75c-0.43,0.05-1.18,0.09-1.59,0.09h-1.8c-1.35,0-2.26-0.63-2.26-2.12v-2.6l-2.71,0.7L5,42.37l2.89-0.72
			v-3.27l1.04,0.04c-0.02,0.13-0.12,0.19-0.27,0.21v2.81l4.55-1.17l0.12-0.09L14.01,40.54z"/>
		<path d="M15.56,38.96c1.12,0.35,2.41,0.91,3.2,1.46l-0.41,0.68c-0.77-0.55-2.04-1.12-3.14-1.49L15.56,38.96z M15.52,46.41
			c3.82-1.18,6.35-3.32,7.64-6.3c0.23,0.18,0.47,0.32,0.7,0.44c-1.34,2.95-3.97,5.24-7.61,6.45c-0.01,0.1-0.08,0.2-0.15,0.25
			L15.52,46.41z"/>
		<path d="M31.14,43.81c-1.1-0.59-2.6-1.29-3.77-1.75v5.38h-0.81v-9.34l1.09,0.06c-0.01,0.12-0.1,0.19-0.28,0.23v3.14l0.16-0.23
			c1.26,0.46,2.92,1.2,4.04,1.8L31.14,43.81z"/>
		<path d="M34.93,46.23c2.73-0.76,4.9-2.07,6.23-4.42c0.14,0.18,0.41,0.41,0.57,0.54c-1.45,2.47-3.85,3.91-7.09,4.76
			c-0.02,0.09-0.09,0.18-0.17,0.22l-0.45-0.75l0.13-0.2v-7.92l1.11,0.05c-0.01,0.12-0.11,0.22-0.32,0.24V46.23z"/>
		<path d="M50.68,39.07c-0.02,0.04-0.09,0.08-0.14,0.1c-0.58,1.38-1.51,2.57-2.55,3.44c-0.16-0.14-0.46-0.33-0.66-0.44
			c0.99-0.72,1.78-1.76,2.14-2.67h-7.7v-0.73h8.11L50,38.71L50.68,39.07z M46.48,41.03c-0.01,0.09-0.11,0.16-0.25,0.18
			c-0.31,2.54-1.18,4.96-3.4,6.24c-0.15-0.13-0.43-0.38-0.63-0.49c2.19-1.2,2.98-3.45,3.24-6.04L46.48,41.03z"/>
		<path d="M61.44,39v0.67h-2.59l0.57,0.14c-0.03,0.06-0.11,0.1-0.24,0.1c-0.15,0.34-0.38,0.81-0.6,1.18h2.29v5.78
			c0,0.9-0.43,0.92-2.29,0.92c-0.04-0.2-0.15-0.52-0.26-0.71c0.43,0.01,0.84,0.02,1.14,0.02c0.66,0,0.71,0,0.71-0.25v-5.13h-2.29
			v0.96c0,0.19,0.04,0.23,0.34,0.23h1.06c0.23,0,0.28-0.05,0.3-0.52c0.13,0.1,0.39,0.19,0.57,0.23c-0.06,0.69-0.26,0.86-0.78,0.86
			h-1.22c-0.75,0-0.92-0.15-0.92-0.79v-0.97h-1.43c-0.14,1.17-0.58,1.89-2.24,2.29c-0.05-0.16-0.23-0.4-0.35-0.52
			c1.37-0.28,1.8-0.79,1.94-1.77h-2.02v6.05h-0.7v-6.7h2.19c-0.12-0.38-0.33-0.88-0.56-1.27l0.68-0.15
			c0.26,0.41,0.52,0.97,0.61,1.32L55,41.09h2.8c0.21-0.4,0.47-0.99,0.63-1.42H51.8V39h4.41v-1.22l0.95,0.06
			c-0.01,0.08-0.06,0.13-0.22,0.14V39H61.44z M58.71,46.68h-3.47v0.66h-0.66v-3.31h4.13V46.68z M58.05,44.61h-2.81v1.49h2.81V44.61z
			"/>
		<path d="M67.34,46.2h4.48v0.73h-9.69V46.2h4.44v-6.44h-3.91v-0.72h8.67v0.72h-3.99V46.2z"/>
		<path d="M78.02,37.82c-0.03,0.09-0.12,0.14-0.23,0.16c1.05,1.46,3,2.9,4.69,3.63c-0.17,0.17-0.34,0.43-0.46,0.65
			c-1.71-0.84-3.64-2.31-4.68-3.76c-0.89,1.33-2.69,2.86-4.57,3.81c-0.09-0.15-0.27-0.43-0.42-0.58c1.89-0.91,3.75-2.53,4.6-3.97
			L78.02,37.82z M72.91,43.96v-0.69h9.02v0.69h-5.17L76.89,44c-0.03,0.08-0.12,0.11-0.26,0.12c-0.32,0.73-0.81,1.7-1.27,2.49
			c1.43-0.03,3.1-0.09,4.73-0.14c-0.48-0.56-1.04-1.14-1.58-1.61l0.61-0.33c1.01,0.87,2.1,2.05,2.6,2.87l-0.65,0.41
			c-0.14-0.23-0.31-0.48-0.53-0.75c-2.61,0.14-5.39,0.26-7.11,0.31c-0.02,0.1-0.09,0.14-0.17,0.15L73,46.66
			c0.45,0,0.98-0.01,1.57-0.03c0.44-0.77,0.95-1.83,1.28-2.67H72.91z M74.75,41.19h5.21v0.68h-5.21V41.19z"/>
	</g>
	<g id="icon">
		<polygon points="55.81,29.4 35.65,29.4 35.65,9.4 55.81,9.4 55.81,11.59 37.85,11.59 37.85,27.21 55.81,27.21 		"/>
		<polygon points="51.31,33.61 31.15,33.61 31.15,13.6 51.31,13.6 51.31,15.8 33.35,15.8 33.35,31.41 51.31,31.41 		"/>
	</g>
</g>
<g>
	<path d="M55.68,377.14v-0.71h5.88v0.71H59.6v1.83h1.55v7.74h-0.7v-0.59h-3.67v0.74H56.1v-7.89h1.44v-1.83H55.68z M57.63,379.68
		h-0.85v3.8h3.67v-1.55c-0.08,0.36-0.24,0.48-0.5,0.48h-0.38c-0.44,0-0.58-0.13-0.58-0.71v-2.03h-0.85v0.78
		c0,0.76-0.16,1.81-0.86,2.55c-0.08-0.11-0.3-0.26-0.42-0.32c0.66-0.68,0.78-1.56,0.78-2.24V379.68z M56.78,385.44h3.67v-1.3h-3.67
		V385.44z M58.99,378.97v-1.83h-0.84v1.83H58.99z M59.87,381.89c0.13,0,0.17-0.07,0.18-0.77c0.1,0.08,0.26,0.14,0.41,0.19v-1.63
		h-0.95v2.01c0,0.17,0.01,0.19,0.11,0.19H59.87z M62.85,385.53c0,0.42,0.11,0.5,0.66,0.5h1.91c0.55,0,0.64-0.31,0.7-2.1
		c0.18,0.14,0.52,0.28,0.73,0.34c-0.1,1.99-0.34,2.52-1.38,2.52h-2.03c-1.06,0-1.38-0.25-1.38-1.27v-4.8h3.57v-3.44h-3.69v-0.76
		h4.49v5.52h-0.79v-0.56h-2.78V385.53z"/>
	<path d="M69.91,385.16c0,0.77,0.25,0.96,1.61,0.96h4.93c1.19,0,1.38-0.34,1.52-1.86c0.2,0.14,0.55,0.26,0.79,0.31
		c-0.19,1.77-0.54,2.3-2.31,2.3h-4.86c-1.91,0-2.49-0.32-2.49-1.73v-5.47c-0.3,0.26-0.61,0.53-0.95,0.77
		c-0.13-0.18-0.4-0.44-0.6-0.58c1.7-1.17,2.96-2.78,3.63-4.03l1.07,0.18c-0.02,0.08-0.11,0.14-0.26,0.16
		c-0.1,0.17-0.2,0.34-0.32,0.52h3.18l0.13-0.05l0.64,0.4c-0.04,0.05-0.11,0.08-0.19,0.1c-0.28,0.54-0.68,1.19-1.1,1.74h3.5v4.39H77
		v-0.56h-7.09V385.16z M69.91,379.62v2.34h3.02v-2.34H69.91z M73.35,378.88c0.35-0.41,0.71-0.96,0.97-1.46h-3.17
		c-0.36,0.48-0.77,0.97-1.22,1.46H73.35z M77,381.96v-2.34h-3.25v2.34H77z"/>
	<path d="M80.87,386.35c-0.37-0.86-0.52-2.65-0.52-4.22c0-1.59,0.25-3.6,0.65-5.6l1.16,0.23c-0.02,0.12-0.14,0.2-0.31,0.22
		c-0.43,1.64-0.7,3.78-0.7,5.17c0,0.91,0.01,1.82,0.11,2.27c0.26-0.72,0.74-1.87,1-2.43l0.54,0.5c-0.4,0.82-1.23,2.64-1.23,3.2
		c0,0.17,0.04,0.35,0.12,0.58L80.87,386.35z M83.91,379.28c1.01,0.01,2.01,0.02,3.02-0.05c-0.05-1.03-0.08-1.92-0.11-2.81l1.21,0.04
		c-0.01,0.12-0.12,0.22-0.31,0.25c0.01,0.77,0.04,1.55,0.06,2.46c0.95-0.1,1.72-0.26,2.35-0.48l0.11,0.84
		c-0.58,0.18-1.4,0.35-2.42,0.43c0.05,1.33,0.11,2.73,0.14,3.5c0.91,0.37,1.82,0.96,2.45,1.52l-0.47,0.77
		c-0.49-0.49-1.2-1.02-1.94-1.37c-0.01,1.02-0.2,2.16-2,2.16c-1.4,0-2.34-0.67-2.34-1.73c0-1.22,1.24-1.76,2.34-1.76
		c0.37,0,0.77,0.05,1.14,0.16c-0.04-0.76-0.11-2.01-0.17-3.19c-0.37,0.02-0.88,0.04-1.22,0.04h-1.82L83.91,379.28z M87.2,384
		c-0.38-0.12-0.79-0.22-1.19-0.22c-0.73,0-1.61,0.26-1.61,1.02c0,0.67,0.72,1.01,1.6,1.01c0.89,0,1.21-0.43,1.21-1.39L87.2,384z"/>
	<path d="M97.87,376.07c-0.04,0.07-0.12,0.12-0.26,0.13c-0.13,0.38-0.34,0.9-0.53,1.34h4.35v9.43h-0.84v-0.64h-6.54v0.71h-0.8v-9.5
		h2.97c0.22-0.53,0.43-1.21,0.54-1.69L97.87,376.07z M100.59,378.34h-6.54v1.92h6.54V378.34z M100.59,381.01h-6.54v1.89h6.54V381.01
		z M94.05,385.57h6.54v-1.91h-6.54V385.57z"/>
	<path d="M109.63,378.24h4.37v8.72h-0.83v-0.72h-7.86v0.77h-0.8v-8.77h4.29v-2.36l1.06,0.06c-0.01,0.08-0.07,0.14-0.23,0.17V378.24z
		 M108.8,379.05h-3.49v2.76h3.49V379.05z M105.31,382.6v2.83h3.49v-2.83H105.31z M113.17,379.05h-3.54v2.76h3.54V379.05z
		 M109.63,385.44h3.54v-2.83h-3.54V385.44z"/>
	<path d="M118.4,376.76c-0.04,0.13-0.16,0.2-0.4,0.19c-0.42,1.96-0.64,4.1-0.64,5.4c0,0.9,0.04,1.81,0.16,2.38
		c0.23-0.59,0.74-1.85,0.91-2.27l0.5,0.53c-0.49,1.21-0.85,1.9-1.02,2.43c-0.06,0.2-0.1,0.4-0.1,0.56c0,0.13,0.02,0.25,0.06,0.37
		l-0.85,0.16c-0.38-1.14-0.53-2.53-0.53-4.13c0-1.57,0.25-3.77,0.64-5.84L118.4,376.76z M126.04,385.53
		c-0.43,0.02-0.88,0.04-1.32,0.04c-0.85,0-1.65-0.05-2.23-0.13c-1.48-0.22-2.16-1.03-2.16-1.99c0-0.83,0.46-1.52,1.13-2.31
		l0.78,0.34c-0.6,0.62-1.02,1.2-1.02,1.88c0,1.39,2.04,1.39,3.29,1.39c0.5,0,1.04-0.02,1.55-0.06L126.04,385.53z M120.49,378.2
		c1.55-0.04,3.63-0.18,5.23-0.46l0.07,0.84c-1.49,0.25-3.9,0.41-5.28,0.44L120.49,378.2z"/>
	<path d="M130.77,378.83c-0.04,0.07-0.12,0.12-0.24,0.12c-0.44,0.73-1.35,1.67-2.23,2.24c-0.14-0.14-0.41-0.36-0.56-0.48
		c0.85-0.52,1.72-1.39,2.1-2.16L130.77,378.83z M136.27,382.26l0.59,0.36c-0.02,0.06-0.1,0.1-0.17,0.12
		c-0.62,1.01-1.51,1.81-2.58,2.43c1.32,0.59,2.93,0.96,4.71,1.13c-0.18,0.18-0.37,0.53-0.48,0.76c-1.95-0.22-3.67-0.7-5.06-1.44
		c-1.5,0.71-3.27,1.16-5.11,1.44c-0.06-0.2-0.25-0.55-0.41-0.72c1.7-0.2,3.36-0.59,4.76-1.18c-0.7-0.47-1.3-1.02-1.78-1.65
		c-0.61,0.43-1.34,0.85-2.17,1.22c-0.11-0.19-0.35-0.47-0.53-0.6c1.87-0.74,3.21-1.81,3.9-2.78l1.03,0.18
		c-0.02,0.08-0.11,0.14-0.26,0.14c-0.17,0.2-0.35,0.41-0.55,0.62h3.96L136.27,382.26z M132.67,377.88c0,1.16-0.08,2.88-2.15,4.11
		c-0.12-0.17-0.4-0.42-0.58-0.55c1.8-1.04,1.95-2.46,1.95-3.49v-0.07h-3.96v-0.76h4.88v-1.25l1.06,0.07
		c-0.01,0.08-0.07,0.14-0.23,0.16v1.02h4.93v0.76h-3.33v2.77c0,0.86-0.34,0.89-2.1,0.89c-0.04-0.22-0.13-0.5-0.23-0.72
		c0.64,0.01,1.18,0.01,1.34,0.01c0.17-0.01,0.2-0.05,0.2-0.19v-2.76H132.67z M131.45,382.96l-0.13,0.11c0.49,0.67,1.18,1.24,2,1.7
		c0.91-0.48,1.69-1.08,2.24-1.81H131.45z M138.11,381.3c-0.43-0.67-1.37-1.7-2.18-2.43l0.64-0.37c0.8,0.71,1.77,1.7,2.22,2.38
		L138.11,381.3z"/>
	<path d="M149.77,382.84h-4.15c-0.12,0.76-0.4,1.48-0.97,2.11c1.45,0.88,3.49,1.17,6.25,1.32c-0.16,0.18-0.32,0.52-0.37,0.78
		c-2.82-0.19-4.92-0.58-6.44-1.57c-0.83,0.64-2.05,1.16-3.86,1.56c-0.1-0.18-0.3-0.52-0.47-0.7c1.76-0.34,2.93-0.8,3.68-1.36
		c-0.53-0.47-0.98-1.04-1.34-1.75l0.7-0.24c0.34,0.61,0.73,1.1,1.21,1.5c0.47-0.5,0.7-1.07,0.79-1.66h-3.71v-4.51h3.8v-1.05h-4.93
		v-0.74h10.57v0.74h-4.82v1.05h4.07V382.84z M141.86,378.98v1.28h3.02v-1.28H141.86z M141.86,382.2h3.01
		c0.01-0.22,0.01-0.43,0.01-0.66v-0.65h-3.02V382.2z M148.96,382.2v-1.31h-3.26v0.66c0,0.22,0,0.43-0.01,0.65H148.96z
		 M148.96,378.98h-3.26v1.28h3.26V378.98z"/>
	<path d="M155.6,376.39c-0.02,0.14-0.13,0.23-0.37,0.26c-0.1,1.39-0.22,4.57-0.22,6.34c0,1.79,0.89,2.65,2.4,2.65
		c1.46,0,2.95-0.73,4.32-2.28c0.12,0.19,0.4,0.58,0.54,0.71c-1.4,1.59-3.11,2.43-4.87,2.43c-2.18,0-3.3-1.26-3.3-3.53
		c0-1.51,0.11-5.23,0.19-6.7L155.6,376.39z"/>
	<path d="M164.23,377.5c0.9-0.04,8.29-0.56,9.85-0.58l0.01,0.9c-0.16-0.01-0.3-0.01-0.44-0.01c-0.7,0-1.28,0.12-2.05,0.61
		c-1.8,1.08-3.54,3.01-3.54,4.56c0,1.68,1.18,2.67,4.15,3.06l-0.4,0.84c-3.41-0.49-4.68-1.76-4.68-3.9c0-1.69,1.67-3.74,3.86-5.12
		c-1.27,0.08-4.86,0.36-6.4,0.5c-0.04,0.1-0.17,0.18-0.26,0.19L164.23,377.5z"/>
	<path d="M181.29,376.48c-0.04,0.05-0.12,0.07-0.23,0.05c-0.5,0.26-1.19,0.5-1.96,0.71v2.32h2.37v0.77h-2.37v0.91
		c0.55,0.42,1.94,1.61,2.3,1.93l-0.47,0.66c-0.36-0.4-1.2-1.2-1.83-1.76v4.97h-0.79v-5.45c-0.62,1.43-1.46,2.87-2.28,3.72
		c-0.1-0.24-0.3-0.56-0.46-0.75c0.94-0.94,1.98-2.66,2.55-4.22h-2.36v-0.77h2.54v-2.11c-0.78,0.18-1.59,0.34-2.36,0.47
		c-0.05-0.18-0.17-0.44-0.26-0.61c1.75-0.31,3.81-0.82,4.84-1.43L181.29,376.48z M182.42,377.34l1.02,0.06
		c-0.01,0.08-0.07,0.14-0.23,0.17v6.48h-0.79V377.34z M185.43,376.1l1.03,0.06c-0.01,0.1-0.07,0.14-0.23,0.17v9.58
		c0,0.58-0.17,0.83-0.53,0.96c-0.38,0.14-1.04,0.16-2.16,0.16c-0.05-0.22-0.18-0.59-0.31-0.82c0.44,0.01,0.85,0.01,1.19,0.01
		c0.96,0,1.01,0,1.01-0.31V376.1z"/>
	<path d="M197.92,376.74v9.12c0,1.1-0.53,1.12-2.79,1.09c-0.04-0.2-0.17-0.56-0.29-0.78c0.44,0.01,0.88,0.02,1.22,0.02
		c1,0,1.06,0,1.06-0.33v-2.6h-3.45v3.65h-0.78v-3.65h-3.15c-0.18,1.37-0.59,2.77-1.54,3.83c-0.12-0.16-0.43-0.43-0.61-0.54
		c1.34-1.51,1.48-3.67,1.48-5.39v-4.41H197.92z M189.85,381.15c0,0.42-0.01,0.86-0.05,1.33h3.08v-2.1h-3.03V381.15z M192.88,377.51
		h-3.03v2.12h3.03V377.51z M197.12,379.63v-2.12h-3.45v2.12H197.12z M193.66,382.49h3.45v-2.1h-3.45V382.49z"/>
	<path d="M203.6,376.39c-0.02,0.14-0.13,0.23-0.37,0.26c-0.1,1.39-0.22,4.57-0.22,6.34c0,1.79,0.89,2.65,2.4,2.65
		c1.46,0,2.95-0.73,4.32-2.28c0.12,0.19,0.4,0.58,0.54,0.71c-1.4,1.59-3.11,2.43-4.87,2.43c-2.18,0-3.3-1.26-3.3-3.53
		c0-1.51,0.11-5.23,0.19-6.7L203.6,376.39z"/>
	<path d="M212.23,377.5c0.9-0.04,8.29-0.56,9.85-0.58l0.01,0.9c-0.16-0.01-0.3-0.01-0.44-0.01c-0.7,0-1.28,0.12-2.05,0.61
		c-1.8,1.08-3.54,3.01-3.54,4.56c0,1.68,1.18,2.67,4.15,3.06l-0.4,0.84c-3.41-0.49-4.68-1.76-4.68-3.9c0-1.69,1.67-3.74,3.86-5.12
		c-1.27,0.08-4.86,0.36-6.4,0.5c-0.04,0.1-0.17,0.18-0.26,0.19L212.23,377.5z"/>
	<path d="M231.24,386.92c-1.21-1.42-3.08-3.19-4.7-4.46c-0.6-0.48-0.82-0.82-0.82-1.25c0-0.35,0.19-0.68,0.64-1.09
		c1.09-1.01,3.14-2.95,4.29-4.13l1.02,0.67c-0.02,0.02-0.11,0.12-0.26,0.12c-0.05,0-0.1-0.01-0.14-0.02
		c-1.2,1.15-3.07,2.78-4.05,3.71c-0.29,0.28-0.52,0.52-0.52,0.71c0,0.2,0.22,0.44,0.64,0.76c1.58,1.22,3.27,2.77,4.74,4.35
		L231.24,386.92z"/>
	<path d="M243.08,378.5c-1.02,0.36-2.38,0.59-3.68,0.68c-0.5,2.75-1.24,5.48-2.2,7.5l-0.86-0.32c0.98-1.93,1.7-4.41,2.17-7.14
		c-0.24,0.01-1.85,0.02-2.21,0.01l-0.01-0.82c0.19,0.01,0.44,0.01,0.72,0.01c0.11,0,1.31,0,1.62-0.01c0.12-0.77,0.24-1.61,0.31-2.34
		l1.24,0.12c-0.01,0.13-0.18,0.23-0.35,0.24c-0.07,0.53-0.19,1.17-0.3,1.91c1.17-0.11,2.36-0.31,3.36-0.67L243.08,378.5z
		 M246.28,386.43c-0.47,0.04-0.97,0.06-1.46,0.06c-0.97,0-1.92-0.08-2.5-0.24c-0.85-0.24-1.34-0.86-1.33-1.66
		c0.01-0.53,0.24-1.13,0.74-1.74l0.72,0.31c-0.42,0.49-0.62,0.96-0.62,1.33c0,0.95,0.91,1.16,2.87,1.16c0.53,0,1.08-0.02,1.56-0.07
		L246.28,386.43z M241.59,380.71c1.24-0.4,2.94-0.65,4.35-0.61v0.82c-1.36-0.04-2.93,0.16-4.15,0.54L241.59,380.71z M243.7,376.55
		c0.59,0.43,1.29,1.13,1.67,1.63l-0.44,0.38c-0.35-0.52-1.1-1.26-1.62-1.64L243.7,376.55z M245.25,375.76
		c0.59,0.43,1.29,1.1,1.66,1.62l-0.44,0.38c-0.34-0.47-1.04-1.2-1.61-1.63L245.25,375.76z"/>
	<path d="M258.09,378.63c-1.09,0.31-2.55,0.53-3.99,0.66c0.47,1.63,0.97,2.6,2.27,3.17l-0.59,0.73c-0.55-0.42-1.12-0.74-2.67-0.83
		l-0.14-0.71c0.59,0.05,1.03,0.12,1.33,0.18c-0.42-0.5-0.74-1.27-1.07-2.48c-0.54,0.05-1.27,0.07-1.99,0.07
		c-0.78,0-2.05-0.01-2.82-0.04v-0.82c0.72,0.04,1.74,0.04,2.83,0.04c0.61,0,1.31-0.01,1.79-0.06c-0.14-0.65-0.28-1.54-0.42-2.46
		l1.28,0.02c-0.01,0.14-0.12,0.23-0.31,0.28c0.07,0.68,0.19,1.44,0.32,2.1c1.38-0.12,2.94-0.37,3.99-0.71L258.09,378.63z
		 M255.94,386.53c-0.58,0.02-1.19,0.04-2.23,0.04c-2.51,0-4.28-0.77-4.28-2.37c0-0.68,0.42-1.38,1.08-2.02l0.65,0.52
		c-0.54,0.43-0.86,1.02-0.86,1.48c0,1.19,1.54,1.57,3.44,1.57c1.04,0,1.66-0.02,2.27-0.06L255.94,386.53z"/>
	<path d="M261.72,377.5c-0.02,0.11-0.16,0.18-0.32,0.19c-0.14,0.9-0.23,1.98-0.23,2.99c0,0.44,0.02,0.88,0.05,1.26
		c0.14,2.04,0.97,3.27,1.9,3.26c0.48,0,1.1-1.22,1.54-2.57c0.17,0.17,0.49,0.4,0.7,0.52c-0.55,1.62-1.25,2.94-2.24,2.96
		c-1.52,0.02-2.58-1.82-2.75-4.13c-0.04-0.46-0.05-0.96-0.05-1.5c0-1.06,0.06-2.21,0.18-3.23L261.72,377.5z M269.67,383.07
		c-0.34-2.1-1.4-3.61-3.02-4.51l0.53-0.65c1.75,0.94,3.03,2.66,3.38,4.88L269.67,383.07z"/>
</g>
</svg>
