<?xml version="1.0" encoding="utf-8"?>
<!-- Generator: Adobe Illustrator 25.0.0, SVG Export Plug-In . SVG Version: 6.00 Build 0)  -->
<svg version="1.1" id="レイヤー_1" xmlns="http://www.w3.org/2000/svg" xmlns:xlink="http://www.w3.org/1999/xlink" x="0px"
	 y="0px" viewBox="0 0 428.88 93.6" style="enable-background:new 0 0 428.88 93.6;" xml:space="preserve">
<style type="text/css">
	.st0{fill:#F4F2A0;}
</style>
<g>
	<g>
		<ellipse class="st0" cx="47.73" cy="48.4" rx="33.11" ry="33.45"/>
		<g>
			<path d="M61.18,40.89c-0.36-1.09-0.8-2.25-1.3-3.46c-0.51-1.21-1.17-2.32-1.97-3.33c-0.8-1.01-1.81-1.84-3-2.49
				c-1.2-0.65-2.68-0.97-4.46-0.97c-2.4,0-4.28,0.45-5.66,1.34c-1.38,0.9-2.42,2.14-3.13,3.73c-0.71,1.59-1.16,3.49-1.35,5.69
				c-0.2,2.2-0.3,4.62-0.3,7.24c0,3.45,0.2,6.3,0.59,8.55c0.39,2.25,1.01,4.05,1.85,5.37c0.84,1.33,1.92,2.25,3.25,2.78
				c1.33,0.53,2.91,0.8,4.75,0.8c1.48,0,2.81-0.3,4.01-0.9c1.2-0.6,2.26-1.38,3.18-2.36c0.92-0.98,1.69-2.1,2.31-3.36
				c0.62-1.26,1.08-2.57,1.38-3.93h0.79v10.54h-0.79c-0.16-0.4-0.36-0.67-0.59-0.82c-0.23-0.15-0.57-0.22-1.03-0.22
				c-0.39,0-0.9,0.09-1.53,0.27c-0.62,0.18-1.34,0.38-2.14,0.6c-0.8,0.22-1.68,0.41-2.63,0.6c-0.95,0.18-1.95,0.27-3,0.27
				c-2.4,0-4.71-0.47-6.94-1.42c-2.23-0.94-4.19-2.24-5.88-3.88c-1.69-1.64-3.04-3.57-4.06-5.79c-1.02-2.22-1.53-4.62-1.53-7.21
				c0-2.82,0.57-5.37,1.7-7.66c1.13-2.29,2.58-4.24,4.36-5.87c1.77-1.62,3.75-2.88,5.93-3.75c2.18-0.88,4.32-1.32,6.42-1.32
				c1.05,0,2.03,0.1,2.93,0.3c0.9,0.2,1.74,0.41,2.51,0.62c0.77,0.22,1.47,0.42,2.09,0.62c0.62,0.2,1.15,0.3,1.58,0.3
				c0.46,0,0.8-0.06,1.03-0.17c0.23-0.12,0.39-0.41,0.49-0.87h0.79v10.14H61.18z"/>
		</g>
	</g>
	<g>
		<path class="st0" d="M103.07,78.99c-0.71,0.35-2.1,0.7-3.88,0.7c-4,0-7.23-2.62-7.23-7.94c0-5.07,3.12-8.23,7.68-8.23
			c1.86,0,2.94,0.39,3.43,0.64l-0.45,1.44c-0.71-0.35-1.72-0.64-2.94-0.64c-3.53,0-5.94,2.39-5.94,6.72c0,4.13,2.2,6.56,5.84,6.56
			c1.19,0,2.35-0.27,3.12-0.64L103.07,78.99z"/>
		<path class="st0" d="M113.75,79.47h-8.21V63.75h7.86v1.44h-6.17v5.32h5.8v1.42h-5.8v6.08h6.51V79.47z"/>
		<path class="st0" d="M127.23,79.47h-1.7l-4.96-8.27c-1.04-1.75-2.04-3.51-2.8-5.24l-0.08,0.02c0.14,2,0.16,3.84,0.16,6.56v6.93
			h-1.59V63.75h1.78l5.02,8.27c1.1,1.88,2,3.51,2.72,5.14l0.04-0.02c-0.16-2.19-0.21-4.06-0.21-6.54v-6.85h1.61V79.47z"/>
		<path class="st0" d="M139.82,65.22h-4.59v14.25h-1.7V65.22h-4.57v-1.44h10.86V65.22z"/>
		<path class="st0" d="M147.59,71.94c1.2,0.39,1.92,1.57,2.29,3.28c0.49,2.27,0.84,3.65,1.14,4.25h-1.76
			c-0.25-0.45-0.59-1.84-1-3.79c-0.45-2.19-1.31-3.16-3.14-3.16h-1.9v6.95h-1.69V63.98c0.96-0.21,2.31-0.33,3.53-0.33
			c2.02,0,3.35,0.41,4.27,1.28c0.74,0.68,1.17,1.75,1.17,2.93c0,2.08-1.24,3.42-2.9,4.02V71.94z M145.22,71.2
			c2.16,0,3.55-1.24,3.55-3.13c0-2.33-1.74-3.05-3.63-3.05c-0.92,0-1.57,0.08-1.92,0.17v6.02H145.22z"/>
		<path class="st0" d="M164.42,79.47h-1.8l-1.67-5.09h-5.41l-1.63,5.09h-1.74l5.15-15.72h1.96L164.42,79.47z M160.6,73.01
			l-1.53-4.66c-0.33-1.07-0.59-2.06-0.8-2.99h-0.06c-0.2,0.95-0.49,1.94-0.77,2.93l-1.55,4.72H160.6z"/>
		<path class="st0" d="M166.69,63.75h1.69v15.72h-1.69V63.75z"/>
		<path class="st0" d="M177.94,71.94c1.2,0.39,1.92,1.57,2.29,3.28c0.49,2.27,0.84,3.65,1.14,4.25h-1.76
			c-0.25-0.45-0.59-1.84-1-3.79c-0.45-2.19-1.31-3.16-3.14-3.16h-1.9v6.95h-1.69V63.98c0.96-0.21,2.31-0.33,3.53-0.33
			c2.02,0,3.35,0.41,4.27,1.28c0.74,0.68,1.17,1.75,1.17,2.93c0,2.08-1.24,3.42-2.9,4.02V71.94z M175.57,71.2
			c2.16,0,3.55-1.24,3.55-3.13c0-2.33-1.74-3.05-3.63-3.05c-0.92,0-1.57,0.08-1.92,0.17v6.02H175.57z"/>
		<path class="st0" d="M198.61,78.99c-0.71,0.35-2.1,0.7-3.88,0.7c-4,0-7.23-2.62-7.23-7.94c0-5.07,3.12-8.23,7.68-8.23
			c1.86,0,2.94,0.39,3.43,0.64l-0.45,1.44c-0.71-0.35-1.72-0.64-2.94-0.64c-3.53,0-5.94,2.39-5.94,6.72c0,4.13,2.2,6.56,5.84,6.56
			c1.19,0,2.35-0.27,3.12-0.64L198.61,78.99z"/>
		<path class="st0" d="M211.91,79.47h-1.69v-7.51h-7.43v7.51h-1.69v-15.7h1.69v6.7h7.43v-6.7h1.69V79.47z"/>
		<path class="st0" d="M226.52,79.47h-1.8l-1.67-5.09h-5.41L216,79.47h-1.74l5.15-15.72h1.96L226.52,79.47z M222.7,73.01l-1.53-4.66
			c-0.33-1.07-0.59-2.06-0.8-2.99h-0.06c-0.2,0.95-0.49,1.94-0.78,2.93l-1.55,4.72H222.7z"/>
		<path class="st0" d="M243.47,79.47h-1.67l-0.39-7.07c-0.12-2.25-0.29-5.16-0.27-6.77h-0.06c-0.51,1.77-1.14,3.71-1.9,5.9
			l-2.78,7.88h-1.24l-2.59-7.71c-0.75-2.27-1.35-4.25-1.78-6.06h-0.06c-0.04,1.92-0.16,4.52-0.31,6.93L230,79.47h-1.61l1.08-15.72
			h2.08l2.74,7.98c0.65,1.96,1.16,3.63,1.57,5.26h0.06c0.39-1.59,0.92-3.24,1.61-5.26l2.84-7.98h2.12L243.47,79.47z"/>
		<path class="st0" d="M252.5,71.05c1.47,0.35,3.2,1.59,3.2,3.96c0,1.4-0.53,2.39-1.24,3.09c-1.04,1.03-2.72,1.49-5.06,1.49
			c-1.29,0-2.25-0.1-2.88-0.17V63.98c0.86-0.19,2.08-0.33,3.35-0.33c1.92,0,3.19,0.37,4.1,1.16c0.74,0.64,1.17,1.55,1.17,2.72
			c0,1.55-1.04,2.89-2.63,3.46V71.05z M250.03,70.48c2.06,0,3.39-1.2,3.39-2.81v-0.02c0-1.86-1.35-2.66-3.47-2.66
			c-0.9,0-1.43,0.06-1.74,0.14v5.34H250.03z M248.22,78.13c0.39,0.08,0.94,0.1,1.65,0.1c2.14,0,4.06-0.85,4.06-3.22
			c0-2.35-2.02-3.22-4.08-3.22h-1.63V78.13z"/>
		<path class="st0" d="M266.58,79.47h-8.21V63.75h7.86v1.44h-6.17v5.32h5.8v1.42h-5.8v6.08h6.51V79.47z"/>
		<path class="st0" d="M275.16,71.94c1.2,0.39,1.92,1.57,2.29,3.28c0.49,2.27,0.84,3.65,1.14,4.25h-1.76
			c-0.25-0.45-0.59-1.84-1-3.79c-0.45-2.19-1.31-3.16-3.14-3.16h-1.9v6.95h-1.69V63.98c0.96-0.21,2.31-0.33,3.53-0.33
			c2.02,0,3.35,0.41,4.27,1.28c0.74,0.68,1.17,1.75,1.17,2.93c0,2.08-1.24,3.42-2.9,4.02V71.94z M272.79,71.2
			c2.16,0,3.55-1.24,3.55-3.13c0-2.33-1.74-3.05-3.63-3.05c-0.92,0-1.57,0.08-1.92,0.17v6.02H272.79z"/>
		<path class="st0" d="M298.06,71.47c0,5.53-3.06,8.25-6.74,8.25c-3.86,0-6.59-3.07-6.59-7.98c0-5.11,2.88-8.23,6.78-8.23
			C295.48,63.5,298.06,66.72,298.06,71.47z M286.5,71.69c0,3.34,1.72,6.6,4.88,6.6c3.21,0,4.9-3.15,4.9-6.74
			c0-3.16-1.53-6.62-4.86-6.62C287.99,64.93,286.5,68.35,286.5,71.69z"/>
		<path class="st0" d="M300.64,79.47V63.75h7.84v1.44h-6.15v5.59h5.66v1.42h-5.66v7.26H300.64z"/>
		<path class="st0" d="M326.21,78.99c-0.71,0.35-2.1,0.7-3.88,0.7c-4,0-7.23-2.62-7.23-7.94c0-5.07,3.12-8.23,7.68-8.23
			c1.86,0,2.94,0.39,3.43,0.64l-0.45,1.44c-0.71-0.35-1.72-0.64-2.94-0.64c-3.53,0-5.94,2.39-5.94,6.72c0,4.13,2.2,6.56,5.84,6.56
			c1.19,0,2.35-0.27,3.12-0.64L326.21,78.99z"/>
		<path class="st0" d="M341.12,71.47c0,5.53-3.06,8.25-6.74,8.25c-3.86,0-6.59-3.07-6.59-7.98c0-5.11,2.88-8.23,6.78-8.23
			C338.55,63.5,341.12,66.72,341.12,71.47z M329.56,71.69c0,3.34,1.72,6.6,4.88,6.6c3.21,0,4.9-3.15,4.9-6.74
			c0-3.16-1.53-6.62-4.86-6.62C331.05,64.93,329.56,68.35,329.56,71.69z"/>
		<path class="st0" d="M358.38,79.47h-1.67l-0.39-7.07c-0.12-2.25-0.29-5.16-0.27-6.77h-0.06c-0.51,1.77-1.14,3.71-1.9,5.9
			l-2.78,7.88h-1.24l-2.59-7.71c-0.75-2.27-1.35-4.25-1.78-6.06h-0.06c-0.04,1.92-0.16,4.52-0.31,6.93l-0.43,6.91h-1.61l1.08-15.72
			h2.08l2.74,7.98c0.65,1.96,1.16,3.63,1.57,5.26h0.06c0.39-1.59,0.92-3.24,1.61-5.26l2.84-7.98h2.12L358.38,79.47z"/>
		<path class="st0" d="M376.11,79.47h-1.67l-0.39-7.07c-0.12-2.25-0.29-5.16-0.27-6.77h-0.06c-0.51,1.77-1.14,3.71-1.9,5.9
			l-2.78,7.88h-1.24l-2.59-7.71c-0.75-2.27-1.35-4.25-1.78-6.06h-0.06c-0.04,1.92-0.16,4.52-0.31,6.93l-0.43,6.91h-1.61l1.08-15.72
			h2.08l2.74,7.98c0.65,1.96,1.16,3.63,1.57,5.26h0.06c0.39-1.59,0.92-3.24,1.61-5.26l2.84-7.98h2.12L376.11,79.47z"/>
		<path class="st0" d="M387.37,79.47h-8.21V63.75h7.86v1.44h-6.17v5.32h5.8v1.42h-5.8v6.08h6.51V79.47z"/>
		<path class="st0" d="M395.95,71.94c1.2,0.39,1.92,1.57,2.29,3.28c0.49,2.27,0.84,3.65,1.14,4.25h-1.76
			c-0.25-0.45-0.59-1.84-1-3.79c-0.45-2.19-1.31-3.16-3.14-3.16h-1.9v6.95h-1.69V63.98c0.96-0.21,2.31-0.33,3.53-0.33
			c2.02,0,3.35,0.41,4.27,1.28c0.74,0.68,1.17,1.75,1.17,2.93c0,2.08-1.24,3.42-2.9,4.02V71.94z M393.58,71.2
			c2.16,0,3.55-1.24,3.55-3.13c0-2.33-1.74-3.05-3.63-3.05c-0.92,0-1.57,0.08-1.92,0.17v6.02H393.58z"/>
		<path class="st0" d="M411.86,78.99c-0.71,0.35-2.1,0.7-3.88,0.7c-4,0-7.23-2.62-7.23-7.94c0-5.07,3.12-8.23,7.68-8.23
			c1.86,0,2.94,0.39,3.43,0.64l-0.45,1.44c-0.71-0.35-1.72-0.64-2.94-0.64c-3.53,0-5.94,2.39-5.94,6.72c0,4.13,2.2,6.56,5.84,6.56
			c1.19,0,2.35-0.27,3.12-0.64L411.86,78.99z"/>
		<path class="st0" d="M422.55,79.47h-8.21V63.75h7.86v1.44h-6.17v5.32h5.8v1.42h-5.8v6.08h6.51V79.47z"/>
	</g>
	<g>
		<path class="st0" d="M125.37,25.64c-0.12,0.21-0.37,0.37-0.65,0.5c-1.84,4.46-5.07,10.07-8.54,13.46
			c-0.61-0.45-1.68-1.07-2.45-1.49c3.11-2.81,5.64-6.94,6.99-10.24l-15.65,4.13v10.69c0,4.05,2.41,5.41,5.68,5.41h6.66
			c1.67,0,4.49-0.25,6.09-0.45c0,0.91,0.04,2.02,0.08,2.89c-1.64,0.21-4.5,0.33-6.05,0.33h-6.82c-5.15,0-8.58-2.44-8.58-8.13v-9.99
			l-10.3,2.68l-0.69-2.77l10.99-2.77V17.34l3.96,0.17c-0.08,0.49-0.45,0.74-1.02,0.83V29.1l17.29-4.5l0.45-0.33L125.37,25.64z"/>
		<path class="st0" d="M131.25,19.57c4.25,1.36,9.15,3.51,12.18,5.61l-1.55,2.6c-2.94-2.11-7.76-4.29-11.93-5.74L131.25,19.57z
			 M131.09,48.18c14.51-4.54,24.15-12.76,29.06-24.19c0.86,0.7,1.8,1.24,2.66,1.69c-5.11,11.31-15.08,20.1-28.93,24.77
			c-0.04,0.37-0.29,0.78-0.57,0.95L131.09,48.18z"/>
		<path class="st0" d="M190.45,38.19c-4.17-2.27-9.89-4.95-14.34-6.73V52.1h-3.06V16.22l4.13,0.25c-0.04,0.45-0.37,0.74-1.06,0.87
			v12.05l0.61-0.87c4.78,1.78,11.12,4.62,15.37,6.89L190.45,38.19z"/>
		<path class="st0" d="M204.88,47.47c10.38-2.93,18.63-7.97,23.66-16.97c0.53,0.7,1.55,1.57,2.17,2.06
			c-5.52,9.49-14.63,15.03-26.93,18.29c-0.08,0.33-0.33,0.7-0.65,0.83l-1.72-2.89l0.49-0.78V17.59l4.21,0.21
			c-0.04,0.45-0.41,0.83-1.22,0.91V47.47z"/>
		<path class="st0" d="M264.72,19.98c-0.08,0.17-0.33,0.29-0.53,0.37c-2.21,5.28-5.72,9.87-9.69,13.21
			c-0.61-0.54-1.76-1.28-2.49-1.69c3.76-2.77,6.78-6.77,8.13-10.24h-29.26v-2.81h30.81l0.45-0.21L264.72,19.98z M248.78,27.49
			c-0.04,0.33-0.41,0.62-0.94,0.7c-1.19,9.74-4.49,19.03-12.91,23.94c-0.57-0.49-1.63-1.44-2.41-1.9
			c8.34-4.62,11.32-13.25,12.3-23.2L248.78,27.49z"/>
		<path class="st0" d="M305.65,19.73v2.56h-9.85l2.17,0.54c-0.12,0.25-0.41,0.37-0.9,0.37c-0.57,1.32-1.43,3.1-2.29,4.54h8.7v22.21
			c0,3.47-1.63,3.55-8.7,3.55c-0.16-0.78-0.57-1.98-0.98-2.72c1.64,0.04,3.19,0.08,4.33,0.08c2.49,0,2.7,0,2.7-0.95V30.22h-8.7v3.67
			c0,0.74,0.16,0.87,1.31,0.87h4.05c0.86,0,1.06-0.21,1.15-1.98c0.49,0.37,1.47,0.74,2.16,0.87c-0.25,2.64-0.98,3.3-2.98,3.3h-4.62
			c-2.86,0-3.51-0.58-3.51-3.01v-3.72h-5.44c-0.53,4.5-2.21,7.27-8.5,8.79c-0.2-0.62-0.86-1.53-1.35-1.98
			c5.19-1.07,6.82-3.01,7.36-6.81h-7.68v23.24h-2.66V27.74h8.34c-0.45-1.44-1.27-3.39-2.12-4.87l2.57-0.58
			c0.98,1.57,1.96,3.72,2.33,5.08l-1.35,0.37h10.63c0.82-1.53,1.8-3.8,2.41-5.45h-25.21v-2.56h16.76v-4.67l3.6,0.25
			c-0.04,0.29-0.25,0.5-0.82,0.54v3.88H305.65z M295.27,49.21h-13.2v2.52h-2.49V39.01h15.69V49.21z M292.74,41.24h-10.67v5.74h10.67
			V41.24z"/>
		<path class="st0" d="M328.06,47.35h17.04v2.81h-36.82v-2.81h16.88V22.62h-14.87v-2.77h32.94v2.77h-15.16V47.35z"/>
		<path class="st0" d="M368.64,15.19c-0.12,0.33-0.45,0.54-0.86,0.62c4.01,5.61,11.4,11.15,17.82,13.95
			c-0.65,0.66-1.31,1.65-1.76,2.48c-6.5-3.22-13.85-8.88-17.78-14.45c-3.39,5.12-10.22,10.98-17.37,14.61
			c-0.33-0.58-1.02-1.65-1.59-2.23c7.19-3.51,14.26-9.7,17.49-15.23L368.64,15.19z M349.22,38.76v-2.64h34.29v2.64h-19.66l0.49,0.17
			c-0.12,0.29-0.45,0.41-0.98,0.45c-1.22,2.81-3.06,6.52-4.82,9.58c5.43-0.12,11.77-0.33,17.98-0.54c-1.84-2.15-3.96-4.38-6.01-6.19
			l2.33-1.28c3.84,3.34,7.97,7.88,9.89,11.02l-2.45,1.57c-0.53-0.87-1.19-1.86-2-2.89c-9.93,0.54-20.47,0.99-27.01,1.2
			c-0.08,0.37-0.33,0.54-0.65,0.58l-1.02-3.3c1.72,0,3.72-0.04,5.97-0.12c1.67-2.97,3.6-7.02,4.86-10.24H349.22z M356.21,28.11
			h19.82v2.6h-19.82V28.11z"/>
	</g>
</g>
<g>
	<g>
		<path d="M96.39,375.84c-0.59,0.29-1.74,0.58-3.22,0.58c-3.32,0-5.99-2.15-5.99-6.52c0-4.17,2.59-6.76,6.37-6.76
			c1.54,0,2.44,0.32,2.84,0.52l-0.37,1.18c-0.59-0.29-1.42-0.52-2.44-0.52c-2.93,0-4.93,1.96-4.93,5.52c0,3.39,1.83,5.39,4.84,5.39
			c0.98,0,1.95-0.22,2.59-0.52L96.39,375.84z"/>
		<path d="M105.25,376.23h-6.81v-12.9h6.52v1.19h-5.11v4.37h4.81v1.17h-4.81v4.99h5.4V376.23z"/>
		<path d="M116.43,376.23h-1.41l-4.11-6.79c-0.86-1.44-1.69-2.88-2.32-4.3l-0.07,0.02c0.12,1.64,0.14,3.15,0.14,5.39v5.69h-1.32
			v-12.9h1.47l4.17,6.79c0.91,1.54,1.66,2.88,2.25,4.22l0.03-0.02c-0.14-1.8-0.17-3.34-0.17-5.37v-5.62h1.34V376.23z"/>
		<path d="M126.87,364.53h-3.81v11.7h-1.41v-11.7h-3.79v-1.19h9.01V364.53z"/>
		<path d="M133.31,370.05c1,0.32,1.59,1.29,1.9,2.69c0.41,1.86,0.69,3,0.95,3.49h-1.46c-0.2-0.37-0.49-1.51-0.83-3.12
			c-0.37-1.8-1.08-2.59-2.61-2.59h-1.58v5.71h-1.4v-12.72c0.8-0.17,1.91-0.27,2.93-0.27c1.68,0,2.78,0.34,3.54,1.05
			c0.61,0.56,0.97,1.44,0.97,2.4c0,1.71-1.03,2.81-2.4,3.3V370.05z M131.34,369.44c1.8,0,2.95-1.02,2.95-2.57
			c0-1.91-1.44-2.51-3.01-2.51c-0.76,0-1.3,0.07-1.59,0.14v4.95H131.34z"/>
		<path d="M147.26,376.23h-1.49l-1.39-4.18h-4.49l-1.36,4.18h-1.44l4.27-12.9H143L147.26,376.23z M144.1,370.93l-1.27-3.83
			c-0.27-0.88-0.49-1.69-0.66-2.46h-0.05c-0.17,0.78-0.41,1.59-0.64,2.41l-1.29,3.88H144.1z"/>
		<path d="M149.15,363.32h1.4v12.9h-1.4V363.32z"/>
		<path d="M158.48,370.05c1,0.32,1.59,1.29,1.9,2.69c0.41,1.86,0.69,3,0.95,3.49h-1.46c-0.2-0.37-0.49-1.51-0.83-3.12
			c-0.37-1.8-1.08-2.59-2.61-2.59h-1.58v5.71h-1.4v-12.72c0.8-0.17,1.91-0.27,2.93-0.27c1.68,0,2.78,0.34,3.54,1.05
			c0.61,0.56,0.97,1.44,0.97,2.4c0,1.71-1.03,2.81-2.4,3.3V370.05z M156.52,369.44c1.8,0,2.95-1.02,2.95-2.57
			c0-1.91-1.44-2.51-3.01-2.51c-0.76,0-1.3,0.07-1.59,0.14v4.95H156.52z"/>
		<path d="M175.62,375.84c-0.59,0.29-1.74,0.58-3.22,0.58c-3.32,0-5.99-2.15-5.99-6.52c0-4.17,2.59-6.76,6.37-6.76
			c1.54,0,2.44,0.32,2.84,0.52l-0.37,1.18c-0.59-0.29-1.42-0.52-2.44-0.52c-2.93,0-4.93,1.96-4.93,5.52c0,3.39,1.83,5.39,4.84,5.39
			c0.98,0,1.95-0.22,2.59-0.52L175.62,375.84z"/>
		<path d="M186.65,376.23h-1.4v-6.16h-6.16v6.16h-1.4v-12.89h1.4v5.5h6.16v-5.5h1.4V376.23z"/>
		<path d="M198.77,376.23h-1.49l-1.39-4.18h-4.49l-1.36,4.18h-1.44l4.27-12.9h1.63L198.77,376.23z M195.6,370.93l-1.27-3.83
			c-0.27-0.88-0.49-1.69-0.66-2.46h-0.05c-0.17,0.78-0.41,1.59-0.64,2.41l-1.29,3.88H195.6z"/>
		<path d="M212.83,376.23h-1.39l-0.32-5.81c-0.1-1.84-0.24-4.23-0.22-5.55h-0.05c-0.42,1.46-0.95,3.05-1.58,4.84l-2.3,6.47h-1.03
			l-2.15-6.33c-0.63-1.86-1.12-3.49-1.47-4.98h-0.05c-0.03,1.58-0.14,3.71-0.25,5.69l-0.36,5.67h-1.34l0.9-12.9h1.73l2.27,6.55
			c0.54,1.61,0.96,2.98,1.3,4.32h0.05c0.32-1.3,0.76-2.66,1.34-4.32l2.35-6.55h1.76L212.83,376.23z"/>
		<path d="M220.32,369.32c1.22,0.29,2.66,1.3,2.66,3.25c0,1.15-0.44,1.96-1.03,2.54c-0.86,0.85-2.25,1.22-4.2,1.22
			c-1.07,0-1.86-0.08-2.39-0.14v-12.68c0.71-0.15,1.73-0.27,2.78-0.27c1.59,0,2.64,0.3,3.4,0.95c0.61,0.52,0.97,1.27,0.97,2.24
			c0,1.27-0.86,2.37-2.18,2.84V369.32z M218.27,368.84c1.71,0,2.81-0.98,2.81-2.3v-0.02c0-1.52-1.12-2.18-2.88-2.18
			c-0.74,0-1.18,0.05-1.44,0.12v4.39H218.27z M216.76,375.13c0.32,0.07,0.78,0.08,1.37,0.08c1.78,0,3.37-0.69,3.37-2.64
			c0-1.93-1.68-2.64-3.39-2.64h-1.36V375.13z"/>
		<path d="M231.99,376.23h-6.81v-12.9h6.52v1.19h-5.11v4.37h4.81v1.17h-4.81v4.99h5.4V376.23z"/>
		<path d="M239.11,370.05c1,0.32,1.59,1.29,1.9,2.69c0.41,1.86,0.69,3,0.95,3.49h-1.46c-0.2-0.37-0.49-1.51-0.83-3.12
			c-0.37-1.8-1.08-2.59-2.61-2.59h-1.58v5.71h-1.4v-12.72c0.8-0.17,1.91-0.27,2.93-0.27c1.68,0,2.78,0.34,3.54,1.05
			c0.61,0.56,0.97,1.44,0.97,2.4c0,1.71-1.03,2.81-2.4,3.3V370.05z M237.14,369.44c1.8,0,2.95-1.02,2.95-2.57
			c0-1.91-1.44-2.51-3.01-2.51c-0.76,0-1.3,0.07-1.59,0.14v4.95H237.14z"/>
		<path d="M258.1,369.66c0,4.54-2.54,6.77-5.59,6.77c-3.2,0-5.47-2.52-5.47-6.55c0-4.2,2.39-6.76,5.62-6.76
			C255.96,363.12,258.1,365.76,258.1,369.66z M248.51,369.84c0,2.74,1.42,5.42,4.05,5.42c2.66,0,4.06-2.59,4.06-5.54
			c0-2.59-1.27-5.44-4.03-5.44C249.75,364.29,248.51,367.1,248.51,369.84z"/>
		<path d="M260.24,376.23v-12.9h6.5v1.19h-5.1v4.59h4.69v1.17h-4.69v5.96H260.24z"/>
		<path d="M281.44,375.84c-0.59,0.29-1.74,0.58-3.22,0.58c-3.32,0-5.99-2.15-5.99-6.52c0-4.17,2.59-6.76,6.37-6.76
			c1.54,0,2.44,0.32,2.84,0.52l-0.37,1.18c-0.59-0.29-1.42-0.52-2.44-0.52c-2.93,0-4.93,1.96-4.93,5.52c0,3.39,1.83,5.39,4.84,5.39
			c0.98,0,1.95-0.22,2.59-0.52L281.44,375.84z"/>
		<path d="M293.81,369.66c0,4.54-2.54,6.77-5.59,6.77c-3.2,0-5.47-2.52-5.47-6.55c0-4.2,2.39-6.76,5.62-6.76
			C291.68,363.12,293.81,365.76,293.81,369.66z M284.23,369.84c0,2.74,1.42,5.42,4.05,5.42c2.66,0,4.06-2.59,4.06-5.54
			c0-2.59-1.27-5.44-4.03-5.44C285.46,364.29,284.23,367.1,284.23,369.84z"/>
		<path d="M308.13,376.23h-1.39l-0.32-5.81c-0.1-1.84-0.24-4.23-0.22-5.55h-0.05c-0.42,1.46-0.95,3.05-1.58,4.84l-2.3,6.47h-1.03
			l-2.15-6.33c-0.63-1.86-1.12-3.49-1.47-4.98h-0.05c-0.03,1.58-0.14,3.71-0.25,5.69l-0.36,5.67h-1.34l0.9-12.9h1.73l2.27,6.55
			c0.54,1.61,0.96,2.98,1.3,4.32h0.05c0.32-1.3,0.76-2.66,1.34-4.32l2.35-6.55h1.76L308.13,376.23z"/>
		<path d="M322.83,376.23h-1.39l-0.32-5.81c-0.1-1.84-0.24-4.23-0.22-5.55h-0.05c-0.42,1.46-0.95,3.05-1.58,4.84l-2.3,6.47h-1.03
			l-2.15-6.33c-0.63-1.86-1.12-3.49-1.47-4.98h-0.05c-0.03,1.58-0.14,3.71-0.25,5.69l-0.36,5.67h-1.34l0.9-12.9h1.73l2.27,6.55
			c0.54,1.61,0.96,2.98,1.3,4.32h0.05c0.32-1.3,0.76-2.66,1.34-4.32l2.35-6.55h1.76L322.83,376.23z"/>
		<path d="M332.17,376.23h-6.81v-12.9h6.52v1.19h-5.11v4.37h4.81v1.17h-4.81v4.99h5.4V376.23z"/>
		<path d="M339.29,370.05c1,0.32,1.59,1.29,1.9,2.69c0.41,1.86,0.69,3,0.95,3.49h-1.46c-0.2-0.37-0.49-1.51-0.83-3.12
			c-0.37-1.8-1.08-2.59-2.61-2.59h-1.58v5.71h-1.4v-12.72c0.8-0.17,1.91-0.27,2.93-0.27c1.68,0,2.78,0.34,3.54,1.05
			c0.61,0.56,0.97,1.44,0.97,2.4c0,1.71-1.03,2.81-2.4,3.3V370.05z M337.32,369.44c1.8,0,2.95-1.02,2.95-2.57
			c0-1.91-1.44-2.51-3.01-2.51c-0.76,0-1.3,0.07-1.59,0.14v4.95H337.32z"/>
		<path d="M352.48,375.84c-0.59,0.29-1.74,0.58-3.22,0.58c-3.32,0-5.99-2.15-5.99-6.52c0-4.17,2.59-6.76,6.37-6.76
			c1.54,0,2.44,0.32,2.84,0.52l-0.37,1.18c-0.59-0.29-1.42-0.52-2.44-0.52c-2.93,0-4.93,1.96-4.93,5.52c0,3.39,1.83,5.39,4.84,5.39
			c0.98,0,1.95-0.22,2.59-0.52L352.48,375.84z"/>
		<path d="M361.34,376.23h-6.81v-12.9h6.52v1.19h-5.11v4.37h4.81v1.17h-4.81v4.99h5.4V376.23z"/>
	</g>
	<g>
		<path d="M131.35,333.42c-0.1,0.17-0.3,0.3-0.54,0.41c-1.53,3.66-4.2,8.27-7.08,11.05c-0.51-0.37-1.39-0.88-2.03-1.22
			c2.58-2.3,4.68-5.69,5.8-8.4l-12.98,3.39v8.78c0,3.32,2,4.44,4.71,4.44h5.52c1.39,0,3.73-0.2,5.05-0.37
			c0,0.75,0.03,1.66,0.07,2.37c-1.36,0.17-3.73,0.27-5.02,0.27h-5.66c-4.27,0-7.12-2-7.12-6.68v-8.2l-8.54,2.2l-0.58-2.27l9.12-2.27
			v-10.3l3.29,0.14c-0.07,0.41-0.37,0.61-0.85,0.68v8.85l14.34-3.69l0.37-0.27L131.35,333.42z"/>
		<path d="M136.23,328.43c3.52,1.12,7.59,2.88,10.1,4.61l-1.29,2.13c-2.44-1.73-6.44-3.52-9.9-4.71L136.23,328.43z M136.09,351.92
			c12.03-3.73,20.03-10.47,24.1-19.86c0.71,0.58,1.49,1.02,2.2,1.39c-4.24,9.29-12.51,16.51-24,20.34c-0.03,0.3-0.24,0.64-0.47,0.78
			L136.09,351.92z"/>
		<path d="M185.32,343.72c-3.46-1.86-8.2-4.07-11.9-5.52v16.95h-2.54v-29.45l3.42,0.2c-0.03,0.37-0.31,0.61-0.88,0.71v9.9l0.51-0.71
			c3.97,1.46,9.22,3.8,12.74,5.66L185.32,343.72z"/>
		<path d="M197.29,351.34c8.61-2.41,15.45-6.54,19.62-13.93c0.44,0.58,1.29,1.29,1.8,1.69c-4.58,7.8-12.13,12.34-22.34,15.01
			c-0.07,0.27-0.27,0.58-0.54,0.68l-1.42-2.37l0.41-0.65v-24.98l3.49,0.17c-0.03,0.37-0.34,0.68-1.02,0.75V351.34z"/>
		<path d="M246.92,328.77c-0.07,0.14-0.27,0.24-0.44,0.3c-1.83,4.34-4.75,8.1-8.03,10.85c-0.51-0.44-1.46-1.05-2.07-1.39
			c3.12-2.27,5.63-5.56,6.74-8.4h-24.27v-2.3h25.56l0.37-0.17L246.92,328.77z M233.7,334.94c-0.03,0.27-0.34,0.51-0.78,0.58
			c-0.98,8-3.73,15.62-10.71,19.66c-0.47-0.41-1.36-1.19-2-1.56c6.91-3.8,9.39-10.88,10.2-19.05L233.7,334.94z"/>
		<path d="M280.86,328.57v2.1h-8.17l1.8,0.44c-0.1,0.2-0.34,0.3-0.75,0.3c-0.47,1.09-1.19,2.54-1.9,3.73h7.22v18.23
			c0,2.85-1.36,2.92-7.22,2.92c-0.14-0.64-0.47-1.63-0.81-2.24c1.36,0.03,2.64,0.07,3.59,0.07c2.07,0,2.24,0,2.24-0.78v-16.17h-7.22
			v3.02c0,0.61,0.14,0.71,1.08,0.71h3.36c0.71,0,0.88-0.17,0.95-1.63c0.41,0.3,1.22,0.61,1.8,0.71c-0.2,2.17-0.81,2.71-2.47,2.71
			h-3.83c-2.37,0-2.91-0.47-2.91-2.48v-3.05h-4.51c-0.44,3.69-1.83,5.96-7.05,7.22c-0.17-0.51-0.71-1.25-1.12-1.63
			c4.31-0.88,5.66-2.48,6.1-5.59h-6.37v19.08h-2.2v-21.11h6.91c-0.37-1.19-1.05-2.78-1.76-4l2.13-0.47
			c0.81,1.29,1.63,3.05,1.93,4.17l-1.12,0.31h8.81c0.68-1.25,1.49-3.12,2-4.47h-20.91v-2.1h13.9v-3.83l2.98,0.2
			c-0.03,0.24-0.2,0.41-0.68,0.44v3.19H280.86z M272.25,352.77H261.3v2.07h-2.07V344.4h13.01V352.77z M270.15,346.23h-8.85v4.71
			h8.85V346.23z"/>
		<path d="M299.44,351.24h14.13v2.3h-30.54v-2.3h14v-20.3H284.7v-2.27h27.32v2.27h-12.57V351.24z"/>
		<path d="M333.1,324.84c-0.1,0.27-0.37,0.44-0.71,0.51c3.32,4.61,9.46,9.15,14.78,11.45c-0.54,0.54-1.09,1.36-1.46,2.03
			c-5.39-2.64-11.49-7.29-14.74-11.86c-2.81,4.2-8.47,9.02-14.4,12c-0.27-0.47-0.85-1.36-1.32-1.83
			c5.97-2.88,11.83-7.96,14.51-12.51L333.1,324.84z M317,344.19v-2.17h28.44v2.17h-16.3l0.41,0.14c-0.1,0.24-0.37,0.34-0.81,0.37
			c-1.02,2.3-2.54,5.36-4,7.86c4.51-0.1,9.76-0.27,14.91-0.44c-1.53-1.76-3.29-3.59-4.98-5.08l1.93-1.05
			c3.19,2.74,6.61,6.47,8.2,9.05l-2.03,1.29c-0.44-0.71-0.98-1.52-1.66-2.37c-8.24,0.44-16.98,0.81-22.4,0.98
			c-0.07,0.3-0.27,0.44-0.54,0.47l-0.85-2.71c1.42,0,3.08-0.03,4.95-0.1c1.39-2.44,2.98-5.76,4.03-8.4H317z M322.79,335.45h16.44
			v2.14h-16.44V335.45z"/>
	</g>
	<g>
		<polygon points="263.1,298.31 199.56,298.31 199.56,235.24 263.1,235.24 263.1,242.16 206.49,242.16 206.49,291.38 263.1,291.38 
					"/>
		<polygon points="248.91,311.56 185.37,311.56 185.37,248.49 248.91,248.49 248.91,255.42 192.29,255.42 192.29,304.64 
			248.91,304.64 		"/>
	</g>
</g>
<g>
	<path d="M113.09,595.63v-0.71h5.88v0.71h-1.96v1.83h1.55v7.74h-0.7v-0.59h-3.67v0.74h-0.68v-7.89h1.44v-1.83H113.09z
		 M115.04,598.17h-0.85v3.8h3.67v-1.55c-0.08,0.36-0.24,0.48-0.5,0.48h-0.38c-0.44,0-0.58-0.13-0.58-0.71v-2.03h-0.85v0.78
		c0,0.76-0.16,1.81-0.86,2.55c-0.08-0.11-0.3-0.26-0.42-0.32c0.66-0.68,0.78-1.56,0.78-2.24V598.17z M114.19,603.93h3.67v-1.3h-3.67
		V603.93z M116.4,597.46v-1.83h-0.84v1.83H116.4z M117.27,600.38c0.13,0,0.17-0.07,0.18-0.77c0.1,0.08,0.26,0.14,0.41,0.19v-1.63
		h-0.95v2.01c0,0.17,0.01,0.19,0.11,0.19H117.27z M120.26,604.02c0,0.42,0.11,0.5,0.66,0.5h1.91c0.55,0,0.64-0.31,0.7-2.1
		c0.18,0.14,0.52,0.28,0.73,0.34c-0.1,1.99-0.34,2.52-1.38,2.52h-2.03c-1.06,0-1.38-0.25-1.38-1.27v-4.8h3.57v-3.44h-3.69v-0.76
		h4.49v5.52h-0.79v-0.56h-2.78V604.02z"/>
	<path d="M127.32,603.65c0,0.77,0.25,0.96,1.61,0.96h4.93c1.19,0,1.38-0.34,1.52-1.86c0.2,0.14,0.55,0.26,0.79,0.31
		c-0.19,1.77-0.54,2.3-2.31,2.3H129c-1.91,0-2.49-0.32-2.49-1.73v-5.47c-0.3,0.26-0.61,0.53-0.95,0.77c-0.13-0.18-0.4-0.44-0.6-0.58
		c1.7-1.17,2.96-2.78,3.63-4.03l1.07,0.18c-0.02,0.08-0.11,0.14-0.26,0.16c-0.1,0.17-0.2,0.34-0.32,0.52h3.18l0.13-0.05l0.64,0.4
		c-0.04,0.05-0.11,0.08-0.19,0.1c-0.28,0.54-0.68,1.19-1.1,1.74h3.5v4.39h-0.82v-0.56h-7.09V603.65z M127.32,598.11v2.34h3.02v-2.34
		H127.32z M130.76,597.37c0.35-0.41,0.71-0.96,0.97-1.46h-3.17c-0.36,0.48-0.77,0.97-1.22,1.46H130.76z M134.41,600.45v-2.34h-3.25
		v2.34H134.41z"/>
	<path d="M138.28,604.84c-0.37-0.86-0.52-2.65-0.52-4.22c0-1.59,0.25-3.6,0.65-5.6l1.16,0.23c-0.02,0.12-0.14,0.2-0.31,0.22
		c-0.43,1.64-0.7,3.78-0.7,5.17c0,0.91,0.01,1.82,0.11,2.27c0.26-0.72,0.74-1.87,1-2.43l0.54,0.5c-0.4,0.82-1.23,2.64-1.23,3.2
		c0,0.17,0.04,0.35,0.12,0.58L138.28,604.84z M141.32,597.77c1.01,0.01,2.01,0.02,3.02-0.05c-0.05-1.03-0.08-1.92-0.11-2.81
		l1.21,0.04c-0.01,0.12-0.12,0.22-0.31,0.25c0.01,0.77,0.04,1.55,0.06,2.46c0.95-0.1,1.72-0.26,2.35-0.48l0.11,0.84
		c-0.58,0.18-1.4,0.35-2.42,0.43c0.05,1.33,0.11,2.73,0.14,3.5c0.91,0.37,1.82,0.96,2.45,1.52l-0.47,0.77
		c-0.49-0.49-1.2-1.02-1.94-1.37c-0.01,1.02-0.2,2.16-2,2.16c-1.4,0-2.34-0.67-2.34-1.73c0-1.22,1.24-1.76,2.34-1.76
		c0.37,0,0.77,0.05,1.14,0.16c-0.04-0.76-0.11-2.01-0.17-3.19c-0.37,0.02-0.88,0.04-1.22,0.04h-1.82L141.32,597.77z M144.61,602.49
		c-0.38-0.12-0.79-0.22-1.19-0.22c-0.73,0-1.61,0.26-1.61,1.02c0,0.67,0.72,1.01,1.6,1.01c0.89,0,1.21-0.43,1.21-1.39L144.61,602.49
		z"/>
	<path d="M155.28,594.56c-0.04,0.07-0.12,0.12-0.26,0.13c-0.13,0.38-0.34,0.9-0.53,1.34h4.35v9.43H158v-0.64h-6.54v0.71h-0.8v-9.5
		h2.97c0.22-0.53,0.43-1.21,0.54-1.69L155.28,594.56z M158,596.83h-6.54v1.92H158V596.83z M158,599.5h-6.54v1.89H158V599.5z
		 M151.46,604.06H158v-1.91h-6.54V604.06z"/>
	<path d="M167.04,596.73h4.37v8.72h-0.83v-0.72h-7.86v0.77h-0.8v-8.77h4.29v-2.36l1.06,0.06c-0.01,0.08-0.07,0.14-0.23,0.17V596.73z
		 M166.21,597.55h-3.49v2.76h3.49V597.55z M162.72,601.09v2.83h3.49v-2.83H162.72z M170.58,597.55h-3.54v2.76h3.54V597.55z
		 M167.04,603.93h3.54v-2.83h-3.54V603.93z"/>
	<path d="M175.81,595.25c-0.04,0.13-0.16,0.2-0.4,0.19c-0.42,1.96-0.64,4.1-0.64,5.4c0,0.9,0.04,1.81,0.16,2.38
		c0.23-0.59,0.74-1.85,0.91-2.27l0.5,0.53c-0.49,1.21-0.85,1.9-1.02,2.43c-0.06,0.2-0.1,0.4-0.1,0.56c0,0.13,0.02,0.25,0.06,0.37
		l-0.85,0.16c-0.38-1.14-0.53-2.53-0.53-4.13c0-1.57,0.25-3.77,0.64-5.84L175.81,595.25z M183.45,604.02
		c-0.43,0.02-0.88,0.04-1.32,0.04c-0.85,0-1.65-0.05-2.23-0.13c-1.48-0.22-2.16-1.03-2.16-1.99c0-0.83,0.46-1.52,1.13-2.31
		l0.78,0.34c-0.6,0.62-1.02,1.2-1.02,1.88c0,1.39,2.04,1.39,3.29,1.39c0.5,0,1.04-0.02,1.55-0.06L183.45,604.02z M177.9,596.69
		c1.55-0.04,3.63-0.18,5.23-0.46l0.07,0.84c-1.49,0.25-3.9,0.41-5.28,0.44L177.9,596.69z"/>
	<path d="M188.18,597.32c-0.04,0.07-0.12,0.12-0.24,0.12c-0.44,0.73-1.35,1.67-2.23,2.24c-0.14-0.14-0.41-0.36-0.56-0.48
		c0.85-0.52,1.72-1.39,2.1-2.16L188.18,597.32z M193.68,600.75l0.59,0.36c-0.02,0.06-0.1,0.1-0.17,0.12
		c-0.62,1.01-1.51,1.81-2.58,2.43c1.32,0.59,2.93,0.96,4.71,1.13c-0.18,0.18-0.37,0.53-0.48,0.76c-1.95-0.22-3.67-0.7-5.06-1.44
		c-1.5,0.71-3.27,1.16-5.11,1.44c-0.06-0.2-0.25-0.55-0.41-0.72c1.7-0.2,3.36-0.59,4.76-1.18c-0.7-0.47-1.3-1.02-1.78-1.65
		c-0.61,0.43-1.34,0.85-2.17,1.22c-0.11-0.19-0.35-0.47-0.53-0.6c1.87-0.74,3.21-1.81,3.9-2.78l1.03,0.18
		c-0.02,0.08-0.11,0.14-0.26,0.14c-0.17,0.2-0.35,0.41-0.55,0.62h3.96L193.68,600.75z M190.08,596.37c0,1.16-0.08,2.88-2.15,4.11
		c-0.12-0.17-0.4-0.42-0.58-0.55c1.8-1.04,1.95-2.46,1.95-3.49v-0.07h-3.96v-0.76h4.88v-1.25l1.06,0.07
		c-0.01,0.08-0.07,0.14-0.23,0.16v1.02h4.93v0.76h-3.33v2.77c0,0.86-0.34,0.89-2.1,0.89c-0.04-0.22-0.13-0.5-0.23-0.72
		c0.64,0.01,1.18,0.01,1.34,0.01c0.17-0.01,0.2-0.05,0.2-0.19v-2.76H190.08z M188.85,601.46l-0.13,0.11c0.49,0.67,1.18,1.24,2,1.7
		c0.91-0.48,1.69-1.08,2.24-1.81H188.85z M195.52,599.79c-0.43-0.67-1.37-1.7-2.18-2.43l0.64-0.37c0.8,0.71,1.77,1.7,2.22,2.38
		L195.52,599.79z"/>
	<path d="M207.18,601.34h-4.15c-0.12,0.76-0.4,1.48-0.97,2.11c1.45,0.88,3.49,1.17,6.25,1.32c-0.16,0.18-0.32,0.52-0.37,0.78
		c-2.82-0.19-4.92-0.58-6.44-1.57c-0.83,0.64-2.05,1.16-3.86,1.56c-0.1-0.18-0.3-0.52-0.47-0.7c1.76-0.34,2.93-0.8,3.68-1.36
		c-0.53-0.47-0.98-1.04-1.34-1.75l0.7-0.24c0.34,0.61,0.73,1.1,1.21,1.5c0.47-0.5,0.7-1.07,0.79-1.66h-3.71v-4.51h3.8v-1.05h-4.93
		v-0.74h10.57v0.74h-4.82v1.05h4.07V601.34z M199.27,597.47v1.28h3.02v-1.28H199.27z M199.27,600.69h3.01
		c0.01-0.22,0.01-0.43,0.01-0.66v-0.65h-3.02V600.69z M206.37,600.69v-1.31h-3.26v0.66c0,0.22,0,0.43-0.01,0.65H206.37z
		 M206.37,597.47h-3.26v1.28h3.26V597.47z"/>
	<path d="M213.01,594.88c-0.02,0.14-0.13,0.23-0.37,0.26c-0.1,1.39-0.22,4.57-0.22,6.34c0,1.79,0.89,2.65,2.4,2.65
		c1.46,0,2.95-0.73,4.32-2.28c0.12,0.19,0.4,0.58,0.54,0.71c-1.4,1.59-3.11,2.43-4.87,2.43c-2.18,0-3.3-1.26-3.3-3.53
		c0-1.51,0.11-5.23,0.19-6.7L213.01,594.88z"/>
	<path d="M221.64,595.99c0.9-0.04,8.29-0.56,9.85-0.58l0.01,0.9c-0.16-0.01-0.3-0.01-0.44-0.01c-0.7,0-1.28,0.12-2.05,0.61
		c-1.8,1.08-3.54,3.01-3.54,4.56c0,1.68,1.18,2.67,4.15,3.06l-0.4,0.84c-3.41-0.49-4.68-1.76-4.68-3.9c0-1.69,1.67-3.74,3.86-5.12
		c-1.27,0.08-4.86,0.36-6.4,0.5c-0.04,0.1-0.17,0.18-0.26,0.19L221.64,595.99z"/>
	<path d="M238.7,594.97c-0.04,0.05-0.12,0.07-0.23,0.05c-0.5,0.26-1.19,0.5-1.96,0.71v2.32h2.37v0.77h-2.37v0.91
		c0.55,0.42,1.94,1.61,2.3,1.93l-0.47,0.66c-0.36-0.4-1.2-1.2-1.83-1.76v4.97h-0.79v-5.45c-0.62,1.43-1.46,2.87-2.28,3.72
		c-0.1-0.24-0.3-0.56-0.46-0.75c0.94-0.94,1.98-2.66,2.55-4.22h-2.36v-0.77h2.54v-2.11c-0.78,0.18-1.59,0.34-2.36,0.47
		c-0.05-0.18-0.17-0.44-0.26-0.61c1.75-0.31,3.81-0.82,4.84-1.43L238.7,594.97z M239.83,595.83l1.02,0.06
		c-0.01,0.08-0.07,0.14-0.23,0.17v6.48h-0.79V595.83z M242.84,594.59l1.03,0.06c-0.01,0.1-0.07,0.14-0.23,0.17v9.58
		c0,0.58-0.17,0.83-0.53,0.96c-0.38,0.14-1.04,0.16-2.16,0.16c-0.05-0.22-0.18-0.59-0.31-0.82c0.44,0.01,0.85,0.01,1.19,0.01
		c0.96,0,1.01,0,1.01-0.31V594.59z"/>
	<path d="M255.33,595.23v9.12c0,1.1-0.53,1.12-2.79,1.09c-0.04-0.2-0.17-0.56-0.29-0.78c0.44,0.01,0.88,0.02,1.22,0.02
		c1,0,1.06,0,1.06-0.33v-2.6h-3.45v3.65h-0.78v-3.65h-3.15c-0.18,1.37-0.59,2.77-1.54,3.83c-0.12-0.16-0.43-0.43-0.61-0.54
		c1.34-1.51,1.48-3.67,1.48-5.39v-4.41H255.33z M247.26,599.64c0,0.42-0.01,0.86-0.05,1.33h3.08v-2.1h-3.03V599.64z M250.29,596
		h-3.03v2.12h3.03V596z M254.53,598.12V596h-3.45v2.12H254.53z M251.07,600.98h3.45v-2.1h-3.45V600.98z"/>
	<path d="M261.01,594.88c-0.02,0.14-0.13,0.23-0.37,0.26c-0.1,1.39-0.22,4.57-0.22,6.34c0,1.79,0.89,2.65,2.4,2.65
		c1.46,0,2.95-0.73,4.32-2.28c0.12,0.19,0.4,0.58,0.54,0.71c-1.4,1.59-3.11,2.43-4.87,2.43c-2.18,0-3.3-1.26-3.3-3.53
		c0-1.51,0.11-5.23,0.19-6.7L261.01,594.88z"/>
	<path d="M269.64,595.99c0.9-0.04,8.29-0.56,9.85-0.58l0.01,0.9c-0.16-0.01-0.3-0.01-0.44-0.01c-0.7,0-1.28,0.12-2.05,0.61
		c-1.8,1.08-3.54,3.01-3.54,4.56c0,1.68,1.18,2.67,4.15,3.06l-0.4,0.84c-3.41-0.49-4.68-1.76-4.68-3.9c0-1.69,1.67-3.74,3.86-5.12
		c-1.27,0.08-4.86,0.36-6.4,0.5c-0.04,0.1-0.17,0.18-0.26,0.19L269.64,595.99z"/>
	<path d="M288.65,605.41c-1.21-1.42-3.08-3.19-4.7-4.46c-0.6-0.48-0.82-0.82-0.82-1.25c0-0.35,0.19-0.68,0.64-1.09
		c1.09-1.01,3.14-2.95,4.29-4.13l1.02,0.67c-0.02,0.02-0.11,0.12-0.26,0.12c-0.05,0-0.1-0.01-0.14-0.02
		c-1.2,1.15-3.07,2.78-4.05,3.71c-0.29,0.28-0.52,0.52-0.52,0.71c0,0.2,0.22,0.44,0.64,0.76c1.58,1.22,3.27,2.77,4.74,4.35
		L288.65,605.41z"/>
	<path d="M300.49,596.99c-1.02,0.36-2.38,0.59-3.68,0.68c-0.5,2.75-1.24,5.48-2.2,7.5l-0.86-0.32c0.98-1.93,1.7-4.41,2.17-7.14
		c-0.24,0.01-1.85,0.02-2.21,0.01l-0.01-0.82c0.19,0.01,0.44,0.01,0.72,0.01c0.11,0,1.31,0,1.62-0.01c0.12-0.77,0.24-1.61,0.31-2.34
		l1.24,0.12c-0.01,0.13-0.18,0.23-0.35,0.24c-0.07,0.53-0.19,1.17-0.3,1.91c1.17-0.11,2.36-0.31,3.36-0.67L300.49,596.99z
		 M303.69,604.92c-0.47,0.04-0.97,0.06-1.46,0.06c-0.97,0-1.92-0.08-2.5-0.24c-0.85-0.24-1.34-0.86-1.33-1.66
		c0.01-0.53,0.24-1.13,0.74-1.74l0.72,0.31c-0.42,0.49-0.62,0.96-0.62,1.33c0,0.95,0.91,1.16,2.87,1.16c0.53,0,1.08-0.02,1.56-0.07
		L303.69,604.92z M299,599.2c1.24-0.4,2.94-0.65,4.35-0.61v0.82c-1.36-0.04-2.93,0.16-4.15,0.54L299,599.2z M301.11,595.04
		c0.59,0.43,1.29,1.13,1.67,1.63l-0.44,0.38c-0.35-0.52-1.1-1.26-1.62-1.64L301.11,595.04z M302.66,594.25
		c0.59,0.43,1.29,1.1,1.66,1.62l-0.44,0.38c-0.34-0.47-1.04-1.2-1.61-1.63L302.66,594.25z"/>
	<path d="M315.5,597.13c-1.09,0.31-2.55,0.53-3.99,0.66c0.47,1.63,0.97,2.6,2.27,3.17l-0.59,0.73c-0.55-0.42-1.12-0.74-2.67-0.83
		l-0.14-0.71c0.59,0.05,1.03,0.12,1.33,0.18c-0.42-0.5-0.74-1.27-1.07-2.48c-0.54,0.05-1.27,0.07-1.99,0.07
		c-0.78,0-2.05-0.01-2.82-0.04v-0.82c0.72,0.04,1.74,0.04,2.83,0.04c0.61,0,1.31-0.01,1.79-0.06c-0.14-0.65-0.28-1.54-0.42-2.46
		l1.28,0.02c-0.01,0.14-0.12,0.23-0.31,0.28c0.07,0.68,0.19,1.44,0.32,2.1c1.38-0.12,2.94-0.37,3.99-0.71L315.5,597.13z
		 M313.35,605.02c-0.58,0.02-1.19,0.04-2.23,0.04c-2.51,0-4.28-0.77-4.28-2.37c0-0.68,0.42-1.38,1.08-2.02l0.65,0.52
		c-0.54,0.43-0.86,1.02-0.86,1.48c0,1.19,1.54,1.57,3.44,1.57c1.04,0,1.66-0.02,2.27-0.06L313.35,605.02z"/>
	<path d="M319.13,595.99c-0.02,0.11-0.16,0.18-0.32,0.19c-0.14,0.9-0.23,1.98-0.23,2.99c0,0.44,0.02,0.88,0.05,1.26
		c0.14,2.04,0.97,3.27,1.9,3.26c0.48,0,1.1-1.22,1.54-2.57c0.17,0.17,0.49,0.4,0.7,0.52c-0.55,1.62-1.25,2.94-2.24,2.96
		c-1.52,0.02-2.58-1.82-2.75-4.13c-0.04-0.46-0.05-0.96-0.05-1.5c0-1.06,0.06-2.21,0.18-3.23L319.13,595.99z M327.08,601.56
		c-0.34-2.1-1.4-3.61-3.02-4.51l0.53-0.65c1.75,0.94,3.03,2.66,3.38,4.88L327.08,601.56z"/>
</g>
</svg>
